<svg width="103" height="84" viewBox="0 0 103 84" fill="none" xmlns="http://www.w3.org/2000/svg">
<path d="M61.4709 81.2601C39.6833 81.2601 22.0209 63.5977 22.0209 41.8101C22.0209 20.0225 39.6833 2.36011 61.4709 2.36011C83.2585 2.36011 100.921 20.0225 100.921 41.8101C100.921 63.5977 83.2585 81.2601 61.4709 81.2601Z" stroke="#6783C1" stroke-width="4" stroke-miterlimit="10"/>
<path d="M82.6309 54.0999L36.3009 42.9899L82.5609 29.1899L65.1009 42.2099L82.6309 54.0999Z" fill="#6783C1"/>
<path d="M6.51008 49.6099C5.00446 49.6073 3.56127 49.008 2.49664 47.9434C1.432 46.8787 0.832722 45.4355 0.830078 43.9299V39.3599C0.832722 37.8543 1.432 36.4111 2.49664 35.3465C3.56127 34.2819 5.00446 33.6826 6.51008 33.6799C7.28758 33.6838 8.05622 33.8453 8.76952 34.1547C9.48283 34.4641 10.126 34.9149 10.6601 35.4799L9.93008 36.1699C9.28923 35.4839 8.45688 35.0064 7.54115 34.7996C6.62543 34.5928 5.66866 34.6661 4.79517 35.0101C3.92167 35.3541 3.17182 35.9529 2.64305 36.7286C2.11428 37.5043 1.83102 38.4211 1.83008 39.3599V43.9299C1.82705 44.8291 2.08256 45.7102 2.56618 46.4682C3.04979 47.2263 3.74112 47.8293 4.55781 48.2055C5.3745 48.5817 6.28211 48.7152 7.17254 48.5901C8.06297 48.465 8.89866 48.0866 9.58008 47.4999L10.2301 48.2499C9.19527 49.1381 7.87372 49.6212 6.51008 49.6099Z" fill="#6783C1"/>
</svg>
