<svg width="103" height="84" viewBox="0 0 103 84" fill="none" xmlns="http://www.w3.org/2000/svg">
<path d="M60.6408 81.2601C38.8532 81.2601 21.1908 63.5977 21.1908 41.8101C21.1908 20.0225 38.8532 2.36011 60.6408 2.36011C82.4285 2.36011 100.091 20.0225 100.091 41.8101C100.091 63.5977 82.4285 81.2601 60.6408 81.2601Z" stroke="white" stroke-width="4" stroke-miterlimit="10"/>
<path d="M81.8008 54.0999L35.4708 42.9899L81.7308 29.1899L64.2708 42.2099L81.8008 54.0999Z" fill="white"/>
<path d="M5.68 49.6099C4.17438 49.6073 2.73119 49.008 1.66656 47.9434C0.601923 46.8787 0.00264376 45.4355 0 43.9299V39.3599C0.00264376 37.8543 0.601923 36.4111 1.66656 35.3465C2.73119 34.2819 4.17438 33.6826 5.68 33.6799C6.4575 33.6838 7.22614 33.8453 7.93945 34.1547C8.65275 34.4641 9.2959 34.9149 9.83 35.4799L9.1 36.1699C8.45916 35.4839 7.6268 35.0064 6.71107 34.7996C5.79535 34.5928 4.83858 34.6661 3.96509 35.0101C3.09159 35.3541 2.34175 35.9529 1.81297 36.7286C1.2842 37.5043 1.00094 38.4211 1 39.3599V43.9299C0.996971 44.8291 1.25249 45.7102 1.7361 46.4682C2.21971 47.2263 2.91104 47.8293 3.72773 48.2055C4.54442 48.5817 5.45203 48.7152 6.34246 48.5901C7.23289 48.465 8.06859 48.0866 8.75 47.4999L9.4 48.2499C8.36519 49.1381 7.04364 49.6212 5.68 49.6099Z" fill="white"/>
</svg>
