<svg viewBox="0 0 20 21"  xmlns="http://www.w3.org/2000/svg">
<path d="M4.5714 1.92847C4.11675 1.92847 3.68071 2.10908 3.35922 2.43057C3.03773 2.75206 2.85712 3.1881 2.85712 3.64275V17.357C2.85712 17.8117 3.03773 18.2477 3.35922 18.5692C3.68071 18.8907 4.11675 19.0713 4.5714 19.0713H15.4285C15.8832 19.0713 16.3192 18.8907 16.6407 18.5692C16.9622 18.2477 17.1428 17.8117 17.1428 17.357V8.7699C17.1428 8.24918 16.9357 7.7499 16.5678 7.38132L11.6171 2.43061C11.2956 2.10911 10.8596 1.92849 10.405 1.92847H4.5714ZM3.92855 3.64275C3.92855 3.47226 3.99627 3.30874 4.11683 3.18818C4.23739 3.06762 4.40091 2.9999 4.5714 2.9999H9.99997V7.64275C9.99997 8.02163 10.1505 8.385 10.4184 8.6529C10.6863 8.92081 11.0497 9.07132 11.4285 9.07132H16.0714V17.357C16.0714 17.5275 16.0037 17.691 15.8831 17.8116C15.7626 17.9322 15.599 17.9999 15.4285 17.9999H4.5714C4.40091 17.9999 4.23739 17.9322 4.11683 17.8116C3.99627 17.691 3.92855 17.5275 3.92855 17.357V3.64275ZM15.6714 7.9999H11.4285C11.3338 7.9999 11.243 7.96227 11.176 7.89529C11.109 7.82831 11.0714 7.73747 11.0714 7.64275V3.3999L15.6714 7.9999Z" fill="currentColor"/>
</svg>
