<svg viewBox="0 0 230 63" fill="none" xmlns="http://www.w3.org/2000/svg">
<path fill-rule="evenodd" clip-rule="evenodd" d="M113.078 35.0708H120.777L116.947 25.3824L113.078 35.0708ZM116.22 17.6834H117.672L117.701 17.7581L128.34 42.7325H123.961L122.252 38.663H111.611L109.905 42.7325H105.555L116.22 17.6834ZM100.096 24.6037C100.096 26.6091 99.2526 28.2812 97.5839 29.5426L97.5971 29.5533C100.035 30.8066 101.273 32.8041 101.273 35.4895C101.297 36.5439 101.082 37.59 100.644 38.5477C100.206 39.5054 99.5561 40.3494 98.7449 41.0151C97.0603 42.4311 94.905 43.1485 92.3001 43.1485C90.3501 43.1775 88.4294 42.6675 86.7465 41.6738C85.1252 40.7038 83.8031 39.2986 82.9278 37.6149L82.8828 37.5296L85.7786 35.3668L85.8421 35.4655C87.5055 38.0336 89.6635 39.3377 92.2498 39.3377C93.662 39.3377 94.8574 38.959 95.7777 38.215C96.2172 37.8728 96.5707 37.4312 96.8096 36.9257C97.0485 36.4203 97.1661 35.8652 97.1529 35.3055C97.172 34.8076 97.0756 34.312 96.8713 33.8583C96.667 33.4045 96.3604 33.0052 95.976 32.6921C95.1906 32.044 94.0217 31.7187 92.5064 31.7187H89.4519V28.1265H92.4217C93.5457 28.1265 94.4369 27.8332 95.0663 27.2492C95.3816 26.9504 95.6291 26.5866 95.7921 26.1825C95.955 25.7784 96.0295 25.3435 96.0104 24.9077C96.033 24.4466 95.9573 23.9859 95.7886 23.5567C95.6198 23.1276 95.3618 22.7398 95.0319 22.4196C94.3761 21.8143 93.4372 21.5076 92.2366 21.5076C90.0337 21.5076 88.238 22.5983 86.9158 24.7477L86.8549 24.8491L83.9459 22.6863L83.9935 22.5983C85.7231 19.3448 88.5316 17.6941 92.3345 17.6941C94.6749 17.6941 96.579 18.3101 97.9806 19.5608C99.3822 20.8116 100.096 22.5076 100.096 24.6037ZM147.606 35.2575C147.606 36.4282 147.233 37.3643 146.498 38.0416C145.763 38.719 144.715 39.0683 143.393 39.0683H138.493V31.4467H143.393C144.715 31.4467 145.773 31.7933 146.498 32.4734C147.222 33.1534 147.606 34.0868 147.606 35.2575ZM149.441 29.9239C147.939 28.5532 145.953 27.8599 143.538 27.8599H138.493V21.8276H149.751V18.0941H134.412V42.7351H143.531C145.945 42.7351 147.931 42.0338 149.433 40.6524C150.935 39.271 151.705 37.4523 151.705 35.2602C151.705 33.0681 150.941 31.2973 149.433 29.9266L149.441 29.9239ZM173.296 38.6954C174.34 38.2549 175.281 37.5989 176.059 36.7696L176.074 36.7749C177.693 35.0735 178.513 32.8974 178.513 30.3746C178.513 27.8519 177.693 25.7184 176.074 24.033C175.294 23.2091 174.352 22.5581 173.309 22.1215C172.265 21.6849 171.143 21.4722 170.013 21.4969C167.58 21.4969 165.536 22.3396 163.931 24.0144C162.325 25.6891 161.511 27.8012 161.511 30.3746C161.511 32.9481 162.328 35.1028 163.915 36.7882C165.501 38.4736 167.546 39.327 169.997 39.327C171.129 39.351 172.252 39.1359 173.296 38.6954ZM161.016 21.3823C163.521 18.8835 166.53 17.6408 169.992 17.6888V17.6861C173.417 17.6461 176.442 18.8755 178.983 21.3796C181.525 23.8837 182.776 26.9238 182.704 30.4173C182.776 33.9054 181.525 36.9456 178.983 39.447C176.492 41.9005 173.533 43.1432 170.185 43.1432H169.989C166.551 43.1832 163.515 41.9511 160.998 39.4497C158.48 36.9482 157.24 33.9081 157.314 30.4146C157.264 26.9265 158.512 23.881 161.016 21.3823ZM186.468 21.8276H194.531V42.7298H198.601V21.8276H206.701V18.0888H186.468V21.8276ZM214.741 35.0708H222.442L218.61 25.3824L214.741 35.0708ZM219.337 17.6914L219.363 17.7581L230.005 42.7325H225.626L223.917 38.663H213.275L211.57 42.7325H207.225L217.885 17.6914H219.337Z" fill="#263472"/>
<path fill-rule="evenodd" clip-rule="evenodd" d="M222.403 4.15752H223.749V5.22423H222.403V9.96043H221.181V5.24557H220.366V4.17885H221.181V3.00813C221.181 1.64541 221.974 0.981388 223.215 0.981388C223.483 0.975857 223.75 1.01182 224.008 1.08805V2.14143C223.847 2.11957 223.684 2.10799 223.521 2.10676C222.776 2.10676 222.405 2.37344 222.405 3.11214L222.403 4.15752ZM196.502 9.98177C196.169 10.0602 195.83 10.104 195.489 10.1124C194.167 10.1124 193.373 9.4484 193.373 8.08835V5.24557H192.442V4.17885H193.373V2.65078H194.603V4.15752H196.301V5.22423H194.603V7.96035C194.603 8.70438 194.986 8.96573 195.732 8.96573C195.907 8.96573 196.15 8.94172 196.489 8.90705L196.502 9.98177ZM200.963 7.67232H199.501C198.85 7.67232 198.488 7.90966 198.488 8.38435C198.488 8.85904 198.895 9.15238 199.488 9.15238C199.675 9.16355 199.862 9.13653 200.039 9.07292C200.215 9.00931 200.377 8.91043 200.515 8.7822C200.653 8.65398 200.764 8.49904 200.841 8.32666C200.918 8.15429 200.959 7.96802 200.963 7.779V7.67232ZM202.198 9.98176H201.058V9.33107C200.832 9.5916 200.551 9.7972 200.235 9.93251C199.919 10.0678 199.577 10.1293 199.234 10.1124C198.036 10.1124 197.245 9.43774 197.245 8.43237C197.245 7.42699 198.059 6.77362 199.361 6.77362H200.974V6.39494C200.974 5.59491 200.535 5.15221 199.755 5.15221C199.115 5.15221 198.649 5.43489 198.168 6.01625L197.459 5.28023C197.723 4.88438 198.082 4.56265 198.503 4.34526C198.924 4.12788 199.393 4.02197 199.866 4.0375C201.273 4.0375 202.203 4.90155 202.203 6.46428L202.198 9.98176ZM206.022 10.1124C206.362 10.104 206.701 10.0602 207.032 9.98177L207.038 8.90705C206.702 8.94172 206.456 8.96573 206.284 8.96573C205.538 8.96573 205.155 8.70438 205.155 7.96035V5.22423H206.853V4.15752H205.155V2.65078H203.922V4.17885H202.994V5.24557H203.907V8.08835C203.907 9.4484 204.7 10.1124 206.022 10.1124ZM212.985 9.98176H211.764V6.51495C211.764 5.71491 211.264 5.16556 210.521 5.16556C210.345 5.16087 210.171 5.19286 210.009 5.25951C209.846 5.32616 209.699 5.42602 209.577 5.5528C209.455 5.67958 209.36 5.83053 209.298 5.99613C209.237 6.16172 209.21 6.33838 209.219 6.51495V9.98176H207.998V4.15751H209.137V4.72553C209.357 4.49351 209.623 4.3112 209.917 4.19073C210.212 4.07026 210.528 4.0144 210.846 4.02684C212.184 4.02684 212.985 4.9522 212.985 6.33626V9.98176ZM218.425 5.95137C218.498 6.129 218.534 6.31994 218.531 6.51228H215.426C215.49 6.11857 215.689 5.76011 215.989 5.50008C216.289 5.24005 216.67 5.09513 217.066 5.09088C217.256 5.08023 217.447 5.10926 217.626 5.17619C217.805 5.24311 217.968 5.34649 218.105 5.47986C218.243 5.61323 218.352 5.77374 218.425 5.95137ZM217.254 9.01105C216.286 9.01105 215.553 8.42968 215.403 7.48298L219.652 7.48564C219.711 7.22923 219.742 6.96731 219.745 6.70428C219.754 6.35168 219.691 6.00098 219.561 5.67346C219.431 5.34594 219.237 5.04845 218.99 4.79904C218.742 4.54963 218.447 4.35351 218.123 4.2226C217.798 4.09169 217.45 4.02872 217.1 4.0375C216.301 4.05306 215.541 4.38801 214.987 4.96864C214.433 5.54928 214.131 6.32804 214.146 7.13363C214.162 7.93921 214.494 8.70564 215.07 9.26427C215.646 9.8229 216.418 10.128 217.217 10.1124C217.639 10.1174 218.059 10.0371 218.45 9.87636C218.842 9.71562 219.197 9.47764 219.496 9.17639L218.914 8.32569C218.467 8.75827 217.873 9.00326 217.254 9.01105ZM227.308 10.1124C227.649 10.104 227.987 10.0602 228.318 9.98177L228.324 8.90705C227.988 8.94172 227.742 8.96573 227.567 8.96573C226.824 8.96573 226.441 8.70438 226.441 7.96035V5.22423H228.139V4.15752H226.441V2.65078H225.208V4.17885H224.262V5.24557H225.193V8.08835C225.193 9.4484 225.986 10.1124 227.308 10.1124Z" fill="#61E354"/>
<path d="M15.5715 53.621C14.0557 51.0212 11.9332 48.8342 9.38847 47.25C11.9338 45.6666 14.0565 43.4794 15.5715 40.8791C17.0847 43.4798 19.2066 45.6672 21.7518 47.25C19.2072 48.8335 17.0854 51.0208 15.5715 53.621ZM31.14 44.5699C24.0658 44.5699 18.3112 38.703 18.3112 31.5027H12.8317C12.8317 38.703 7.07713 44.5699 0.00292969 44.5699V49.9301C7.07713 49.9301 12.8317 55.7971 12.8317 62.9974H18.3086C18.3086 55.7971 24.0631 49.9301 31.1373 49.9301L31.14 44.5699Z" fill="#61E354"/>
<path d="M21.2338 9.98177H9.90454V21.5209H21.2338V9.98177ZM31.0319 31.5H0.106445V0H31.0319V31.5Z" fill="#FF5A02"/>
<path d="M46.4944 5.61358C44.5028 5.59402 42.5503 6.1717 40.8849 7.27325C39.2195 8.37481 37.9162 9.95057 37.1406 11.8005C36.365 13.6504 36.1519 15.6909 36.5286 17.6632C36.9052 19.6354 37.8545 21.4502 39.256 22.8774C40.6574 24.3045 42.4478 25.2795 44.3998 25.6786C46.3518 26.0776 48.3774 25.8828 50.2193 25.1188C52.0613 24.3548 53.6366 23.056 54.7453 21.3875C55.8539 19.7189 56.4458 17.7558 56.4459 15.7473C56.4551 13.0739 55.4127 10.506 53.5472 8.60635C51.6818 6.70674 49.1455 5.63051 46.4944 5.61358ZM46.4944 31.2467C38.1059 31.2467 31.2803 24.2944 31.2803 15.75C31.2803 7.20563 38.1059 0.256012 46.4944 0.256012C54.883 0.256012 61.7059 7.20563 61.7059 15.75C61.7059 24.2944 54.883 31.2467 46.4944 31.2467Z" fill="#FDD300"/>
<path d="M46.494 53.7996C49.1451 53.7827 51.6813 52.7064 53.5468 50.8068C55.4122 48.9072 56.4546 46.3392 56.4455 43.6658H50.7888C50.7888 44.8145 50.3363 45.916 49.5308 46.7282C48.7254 47.5404 47.633 47.9967 46.494 47.9967C45.3549 47.9967 44.2626 47.5404 43.4571 46.7282C42.6517 45.916 42.1992 44.8145 42.1992 43.6658H36.5425C36.5327 46.3395 37.5748 48.9078 39.4404 50.8076C41.306 52.7074 43.8427 53.7834 46.494 53.7996ZM61.9567 63H31.0312V31.5H61.9567V63Z" fill="#00BEFA"/>
</svg>
