
<svg  viewBox="0 0 359 121" fill="none" xmlns="http://www.w3.org/2000/svg">
<path d="M29.6862 68.4172H5.13655V43.0182H46.589V48.9789H13.8904C12.692 48.9789 11.6991 49.9743 11.6991 51.1756V60.317C11.6991 61.5183 12.692 62.5136 13.8904 62.5136C15.0888 62.5136 16.0817 61.5183 16.0817 60.317V53.3608H48.7689C49.9673 53.3608 50.9603 52.3655 50.9603 51.1642V40.8101C50.9603 39.6088 49.9673 38.6134 48.7689 38.6134H2.94523C1.74685 38.6134 0.753906 39.6088 0.753906 40.8101V70.6024C0.753906 71.8037 1.74685 72.7991 2.94523 72.7991H29.6976C43.5646 72.7991 52.1701 80.7964 52.1701 92.6607C52.1701 104.525 43.5646 112.522 30.1655 112.522H5.13655V83.1532H30.2683C36.6254 83.1532 41.2135 86.6542 41.2135 92.6607C41.2135 99.8227 35.2672 102.168 30.1655 102.168H16.0817V91.242C16.0817 90.0407 15.0888 89.0453 13.8904 89.0453C12.692 89.0453 11.6991 90.0407 11.6991 91.242V104.365C11.6991 105.566 12.692 106.561 13.8904 106.561H30.1541C39.3874 106.561 45.5847 100.967 45.5847 92.6607C45.5847 84.3545 39.2732 78.7599 30.2568 78.7599H2.94523C1.74685 78.7599 0.753906 79.7552 0.753906 80.9565V114.719C0.753906 115.92 1.74685 116.916 2.94523 116.916H30.1655C47.2168 116.916 56.5527 105.989 56.5527 92.6607C56.5527 79.3319 46.8059 68.4058 29.6976 68.4058L29.6862 68.4172Z" fill="black"/>
<path d="M99.819 67.582H97.582C96.3836 67.582 95.3907 68.5774 95.3907 69.7787C95.3907 70.98 96.3836 71.9754 97.582 71.9754H99.819C114.679 71.9754 123.547 79.5035 123.547 92.1458C123.547 98.0036 121.618 102.912 117.966 106.413C113.846 110.44 107.432 112.522 99.4538 112.522H77.8715V43.0067H84.4455V80.1213C84.4455 81.3226 85.4384 82.318 86.6368 82.318H99.4652C108.482 82.318 112.602 85.9219 112.602 92.1458C112.602 99.1477 107.386 102.18 100.196 102.18H88.8281V90.4182C88.8281 89.2169 87.8352 88.2216 86.6368 88.2216C85.4384 88.2216 84.4455 89.2169 84.4455 90.4182V104.376C84.4455 105.578 85.4384 106.573 86.6368 106.573H100.196C110.524 106.573 116.984 101.035 116.984 92.1458C116.984 87.8555 115.261 77.9247 99.4195 77.9247H88.8395V40.8101C88.8395 39.6088 87.8466 38.6134 86.6482 38.6134H75.703C74.5047 38.6134 73.5117 39.6088 73.5117 40.8101V114.719C73.5117 115.92 74.5047 116.916 75.703 116.916H99.4766C119.027 116.916 127.941 105.623 127.941 92.1458C127.941 76.9408 116.996 67.582 99.8418 67.582H99.819Z" fill="black"/>
<path d="M253.519 38.6248H228.695C227.44 38.6248 226.504 39.6201 226.504 40.8214V114.73C226.504 115.932 227.44 116.927 228.695 116.927H239.64C240.839 116.927 241.832 115.932 241.832 114.73V80.2357H254.238C264.407 80.2357 270.296 74.4351 270.296 64.2984C270.296 54.8367 264.407 48.9789 254.968 48.9789H239.64C238.385 48.9789 237.449 49.9742 237.449 51.1755V67.6963C237.449 68.8976 238.385 69.893 239.64 69.893C240.896 69.893 241.832 68.8976 241.832 67.6963V53.3722H254.968C262.01 53.3722 265.913 57.3422 265.913 64.2984C265.913 70.568 263.254 75.8538 254.238 75.8538H239.64C238.385 75.8538 237.449 76.8491 237.449 78.0504V112.545H230.875V43.0295H253.507C274.576 43.0295 276.87 57.8685 276.87 64.2984C276.87 77.4669 268.732 86.1964 255.436 86.1964H250.586C249.33 86.1964 248.394 87.1918 248.394 88.3931C248.394 89.5944 249.33 90.5898 250.586 90.5898H255.436C271.803 90.5898 281.241 79.2517 281.241 64.2984C281.241 50.7637 273.161 38.6362 253.507 38.6362L253.519 38.6248Z" fill="black"/>
<path d="M358.636 114.307L325.892 76.1512L355.874 41.2333C356.136 40.9244 356.239 40.5583 356.239 40.1922C356.239 39.4027 355.611 38.6248 354.676 38.6248H340.489C339.188 38.6248 337.887 39.1968 337.054 40.2494L310.256 71.6092C309.525 72.4443 309.16 73.4397 309.16 74.4808V112.534H302.586V43.0181H309.16V57.6054C309.16 58.8067 310.153 59.802 311.351 59.802C312.55 59.802 313.543 58.8067 313.543 57.6054V40.8329C313.543 39.6316 312.55 38.6362 311.351 38.6362H300.406C299.208 38.6362 298.215 39.6316 298.215 40.8329V114.742C298.215 115.943 299.208 116.938 300.406 116.938H311.351C312.55 116.938 313.543 115.943 313.543 114.742V74.4923L340.443 43.0295H348.581L321.418 74.6525C321.053 75.1215 320.847 75.6478 320.847 76.1627C320.847 76.6775 321.053 77.2038 321.418 77.6843L351.343 112.545H343L323.974 90.2237C323.506 89.6974 322.936 89.4342 322.308 89.4342C321.212 89.4342 320.117 90.3266 320.117 91.6309C320.117 92.1572 320.322 92.672 320.642 93.0954L339.622 115.314C340.512 116.309 341.756 116.938 343.068 116.938H357.46C358.396 116.938 359.024 116.149 359.024 115.371C359.024 115.005 358.921 114.639 358.659 114.33L358.636 114.307Z" fill="black"/>
<path d="M204.352 35.021C203.93 34.7121 203.462 34.5519 202.994 34.5519C202.321 34.5519 201.636 34.815 201.225 35.3413L194.446 43.4415C192.152 41.8169 189.698 40.5126 186.993 39.5173C185.589 38.991 184.071 40.0436 184.071 41.5538C184.071 42.4919 184.642 43.3271 185.532 43.6475C188.499 44.6886 191.159 46.256 193.407 48.2468C193.829 48.5557 194.297 48.773 194.811 48.773C195.381 48.773 195.963 48.5099 196.374 47.9836L203.199 39.7804L207.787 43.5903L200.118 52.7316C199.696 53.2579 199.49 53.8872 199.444 54.505C199.444 54.9626 199.604 55.4775 199.867 55.9465C203.462 62.2162 205.242 70.0533 205.242 77.7188C205.242 95.5896 195.963 113.552 175.317 113.552C167.762 113.552 161.758 111.195 157.125 107.282C156.759 106.973 156.291 106.813 155.824 106.813C155.253 106.813 154.625 107.076 154.203 107.545L147.378 115.703L142.847 111.893L150.516 102.752C150.939 102.283 151.19 101.756 151.19 100.978C151.19 100.452 151.03 100.006 150.768 99.5825C147.115 93.2556 145.392 85.4758 145.392 77.7302C145.392 60.5573 153.997 43.2127 173.126 41.9084V50.0659C173.126 51.2672 174.119 52.2053 175.317 52.2053C189.184 52.2053 194.297 66.7697 194.297 77.7302C194.297 88.6907 189.184 103.221 175.317 103.221C161.45 103.221 156.337 88.7136 156.337 77.7302C156.337 69.8588 158.939 60.0767 165.616 55.2715C166.187 54.8482 166.552 54.2418 166.552 53.5096C166.552 52.2053 165.513 51.3129 164.361 51.2672C163.893 51.2672 163.425 51.4274 163.059 51.7363C155.504 57.2051 151.954 67.7651 151.954 77.7302C151.954 92.1573 159.259 107.614 175.317 107.614C191.375 107.614 198.68 92.1573 198.68 77.7302C198.68 63.3031 192.003 49.2764 177.508 47.9264V39.666C177.508 38.4647 176.516 37.4693 175.317 37.4693C153.415 37.4693 141.009 55.7978 141.009 77.7302C141.009 86.2538 142.881 94.1938 146.431 100.761L138.088 110.749C137.722 111.172 137.562 111.687 137.562 112.213C137.562 112.785 137.825 113.415 138.35 113.838L146.225 120.531C146.647 120.84 147.115 121 147.629 121C148.257 121 148.884 120.737 149.295 120.268L156.12 112.11C161.176 115.817 167.75 117.968 175.306 117.968C197.208 117.968 209.614 99.6969 209.614 77.7416C209.614 69.241 207.742 61.3009 204.135 54.7224L212.524 44.7916C212.889 44.3683 213.049 43.8534 213.049 43.3271C213.049 42.7551 212.786 42.1258 212.273 41.6567L204.352 35.021Z" fill="black"/>
<path d="M302.288 25.5591C302.414 26.0968 302.688 26.5316 303.087 26.8634C303.487 27.1837 303.909 27.3554 304.331 27.3554C304.696 27.3554 305.016 27.2409 305.267 27.0007C305.53 26.7604 305.666 26.4058 305.689 25.9252C305.735 24.9756 305.758 24.2434 305.758 23.7514C305.758 20.4336 305.336 16.9898 304.491 13.4088C303.646 9.82775 302.528 6.38401 301.124 3.10044C300.862 2.49407 300.565 1.96778 300.222 1.51014C299.857 1.00674 299.424 0.766479 298.921 0.766479C298.613 0.766479 298.316 0.869448 298.008 1.08683C297.712 1.30421 297.438 1.59023 297.198 1.96778C295.646 4.51913 294.402 6.93318 293.489 9.20994C292.564 11.4867 291.845 13.8207 291.297 16.2233C290.761 18.6259 290.236 21.5777 289.745 25.09C289.722 25.1816 289.711 25.296 289.711 25.4447C289.711 25.7536 289.768 25.971 289.894 26.1312C290.008 26.2799 290.156 26.36 290.327 26.36C290.453 26.36 290.578 26.3257 290.681 26.2456C290.784 26.1655 290.852 26.0625 290.875 25.9367L291.103 25.0557C291.172 24.8612 291.24 24.5638 291.332 24.1748L292.758 17.4818C293.797 17.333 295.132 17.1843 296.764 17.0585C298.396 16.9326 299.754 16.864 300.827 16.864C301.17 20.1361 301.66 23.0307 302.288 25.5706V25.5591ZM299.229 14.3012C298.784 14.3584 298.362 14.4041 297.951 14.4499C296.639 14.6215 295.669 14.7359 295.064 14.7703C294.31 14.8618 293.728 14.9076 293.317 14.9304C294.31 11.2464 295.897 7.4137 298.077 3.43223C298.179 3.21485 298.271 3.07756 298.339 3.00892C298.431 2.91739 298.522 2.89451 298.636 2.91739C298.682 2.91739 298.727 2.94027 298.784 2.98603C298.841 3.0318 298.864 3.07756 298.864 3.11188L299.161 4.70218C299.503 6.56707 299.754 7.97431 299.903 8.92391C300.143 10.4227 300.371 12.1617 300.588 14.1524C300.131 14.1982 299.686 14.244 299.241 14.3012H299.229Z" fill="black"/>
<path d="M242.631 24.3578L242.733 25.6278C242.779 26.1312 243.007 26.4973 243.418 26.7261C243.829 26.9664 244.285 27.0808 244.776 27.0808C245.552 27.0808 246.066 26.4859 246.294 25.296C246.534 24.1061 246.648 22.1726 246.648 19.5183V17.5047C246.648 17.047 246.682 16.658 246.739 16.3377L247.846 16.4979C248.234 16.5665 248.611 16.5894 248.976 16.5894C250.334 16.5894 251.556 16.2462 252.64 15.5711C253.724 14.8847 254.557 13.9808 255.162 12.8596C255.767 11.7384 256.064 10.5142 256.064 9.18707C256.064 7.80271 255.733 6.47555 255.059 5.19416C254.169 3.50089 253.062 2.29959 251.738 1.56736C250.414 0.846581 248.965 0.480469 247.413 0.480469C246.032 0.480469 244.616 0.732171 243.167 1.22413C243.019 1.29278 242.847 1.37287 242.653 1.46439C242.459 1.56736 242.311 1.64745 242.197 1.70466C241.889 1.89915 241.74 2.15085 241.74 2.44832C241.695 4.57635 241.672 6.04079 241.672 6.86455C241.672 9.67903 241.74 12.2075 241.877 14.4614C242.014 16.7152 242.265 20.0103 242.608 24.335L242.631 24.3578ZM247.23 2.24238C249.775 2.24238 251.464 2.97461 252.286 4.4505C252.937 5.53739 253.256 6.72725 253.256 8.02009C253.256 9.5303 252.788 10.9147 251.852 12.1617C250.917 13.4088 249.638 14.244 248.04 14.6787C247.915 14.7016 247.709 14.7245 247.436 14.7588C247.162 14.7932 246.876 14.816 246.58 14.8389C246.363 13.1113 246.077 11.1892 245.724 9.0841C245.37 6.97896 245.016 5.13695 244.674 3.53522C244.651 3.40936 244.616 3.23775 244.571 3.04325C244.525 2.84876 244.491 2.6657 244.468 2.49408C245.461 2.32247 246.385 2.23094 247.219 2.23094L247.23 2.24238Z" fill="black"/>
<path d="M342.738 25.0558C342.886 25.7423 343.217 26.1771 343.708 26.3716C343.799 26.4173 343.902 26.4402 344.028 26.4402C344.393 26.4402 344.644 26.1313 344.792 25.5135C344.929 24.8957 345.043 23.9575 345.135 22.699L345.237 20.0676L345.34 17.9281L348.513 17.8938C349.22 17.8709 350.168 17.8595 351.332 17.8595H352.69L352.793 20.5252L352.861 22.3443C352.861 23.1681 352.861 23.7745 352.896 24.1635C352.941 24.8728 353.01 25.4448 353.124 25.8567C353.227 26.2686 353.455 26.6004 353.809 26.8635C354.699 27.5157 355.361 27.836 355.817 27.836C356.422 27.836 356.776 27.3212 356.89 26.28C356.913 25.7766 356.924 24.9986 356.924 23.9461C356.902 21.349 356.753 17.9853 356.468 13.8437L356.308 11.4067C356.205 9.48465 356.046 7.75706 355.84 6.22396C355.635 4.70231 355.327 3.1921 354.916 1.72765C354.824 1.38442 354.653 1.0984 354.402 0.881017C354.14 0.663638 353.888 0.560669 353.626 0.560669C353.432 0.560669 353.272 0.617874 353.135 0.743725C353.01 0.858135 352.93 1.02975 352.907 1.24713C352.644 3.04337 352.519 5.77776 352.519 9.42744C352.519 10.8804 352.542 12.6881 352.587 14.8505C351.594 14.9191 350.236 15.0221 348.501 15.1708L346.07 15.3653L345.192 15.3996L345.226 14.0725L345.157 9.62194C345.112 8.04308 344.998 6.41846 344.804 4.75952C344.61 3.10057 344.336 1.96791 343.993 1.36154C343.868 1.14416 343.674 1.04119 343.411 1.04119C343.24 1.04119 343.092 1.0984 342.955 1.20136C342.829 1.30433 342.761 1.45307 342.761 1.62468L342.726 2.59717L342.43 19.0608C342.43 20.3765 342.43 21.3833 342.464 22.0812C342.51 23.3855 342.601 24.3694 342.761 25.0558H342.738Z" fill="black"/>
<path d="M1.03859 25.6278C1.08425 26.1312 1.31251 26.4973 1.72338 26.7261C2.13426 26.9664 2.59078 27.0808 3.08155 27.0808C3.85764 27.0808 4.37123 26.4859 4.59949 25.296C4.83917 24.1061 4.9533 22.1726 4.9533 19.5183V17.5047C4.9533 17.047 4.98754 16.658 5.05602 16.3377L6.16309 16.4979C6.55114 16.5665 6.92777 16.5894 7.29299 16.5894C8.65115 16.5894 9.87236 16.2462 10.9566 15.5711C12.0409 14.8847 12.874 13.9808 13.4789 12.8596C14.0838 11.7384 14.392 10.5142 14.392 9.18707C14.392 7.80271 14.061 6.47555 13.3876 5.19416C12.4974 3.50089 11.3903 2.29959 10.0664 1.56736C8.74246 0.846581 7.29299 0.480469 5.7408 0.480469C4.35982 0.480469 2.94459 0.732171 1.49512 1.22413C1.34675 1.29278 1.17555 1.37287 0.981529 1.46439C0.787506 1.56736 0.639135 1.64745 0.525004 1.70466C0.228263 1.89915 0.0684788 2.15085 0.0684788 2.44832C0.0228263 4.57635 0 6.04079 0 6.86455C0 9.67903 0.0684788 12.2075 0.205436 14.4614C0.342394 16.7152 0.593483 20.0103 0.935877 24.335L1.03859 25.6049V25.6278ZM5.53537 2.24238C8.0805 2.24238 9.76964 2.97461 10.5914 4.4505C11.2419 5.53739 11.5615 6.72725 11.5615 8.02009C11.5615 9.5303 11.0936 10.9147 10.1577 12.1617C9.22181 13.4088 7.94354 14.244 6.3457 14.6787C6.22016 14.7016 6.01472 14.7245 5.7408 14.7588C5.46689 14.7932 5.18156 14.816 4.88482 14.8389C4.66797 13.1113 4.38264 11.1892 4.02883 9.0841C3.67503 6.97896 3.32122 5.13695 2.97883 3.53522C2.956 3.40936 2.92176 3.23775 2.87611 3.04325C2.83046 2.84876 2.79622 2.6657 2.77339 2.49408C3.76633 2.32247 4.67938 2.23094 5.52395 2.23094L5.53537 2.24238Z" fill="black"/>
<path d="M99.6166 25.2388C100.61 26.1655 101.705 26.6346 102.892 26.6346C104.079 26.6346 105.289 26.1769 106.442 25.2502C107.594 24.3349 108.587 23.0307 109.409 21.3717C109.5 21.1544 109.478 20.9141 109.341 20.6624C109.215 20.3992 109.055 20.2734 108.884 20.2734C108.758 20.2734 108.644 20.3649 108.564 20.5709C107.891 22.0467 107.183 23.168 106.43 23.9345C105.677 24.7011 104.935 25.0901 104.227 25.0901C103.303 25.0901 102.504 24.4265 101.865 23.1108C101.214 21.7836 100.838 19.9073 100.735 17.4589C100.712 17.1157 100.701 16.5894 100.701 15.9029C100.701 13.7635 100.861 11.7041 101.192 9.73623C101.511 7.76838 102.025 5.99503 102.71 4.40473C103.052 3.64962 103.474 3.06613 103.954 2.6657C104.444 2.26526 104.947 2.07077 105.46 2.07077C106.042 2.07077 106.556 2.32247 106.978 2.81443C107.412 3.31783 107.674 3.99285 107.754 4.86237C107.823 5.35433 107.937 5.60603 108.108 5.60603C108.211 5.60603 108.313 5.51451 108.416 5.33145C108.519 5.14839 108.564 4.91957 108.564 4.66787C108.564 3.15766 108.222 2.00212 107.526 1.21269C106.83 0.423262 105.951 0.0228271 104.867 0.0228271C103.782 0.0228271 102.664 0.411821 101.557 1.18981C100.461 1.9678 99.5595 3.05469 98.8633 4.43905C98.0187 6.13232 97.3682 7.87135 96.9231 9.67903C96.4665 11.4867 96.2383 13.2944 96.2383 15.0906C96.2383 17.1729 96.5693 19.1751 97.2426 21.0971C97.8247 22.9391 98.6122 24.3235 99.6052 25.2502L99.6166 25.2388Z" fill="black"/>
<path d="M195.255 25.1703C196.317 26.5775 197.47 27.2868 198.725 27.2868C199.649 27.2868 200.574 26.875 201.476 26.0512C203.073 24.5982 204.215 22.8134 204.899 20.6968C205.584 18.5802 205.915 16.3264 205.915 13.9466C205.915 12.5165 205.824 11.1436 205.618 9.81644C205.424 8.48929 205.196 7.37951 204.934 6.47567C204.432 4.7252 203.678 3.39804 202.662 2.4942C201.647 1.59036 200.54 1.14417 199.33 1.14417C197.972 1.14417 196.739 1.67045 195.632 2.73446C194.125 4.18747 193.075 5.88074 192.493 7.83715C192.037 9.29016 191.809 11.0063 191.809 12.997C191.809 15.2738 192.117 17.5162 192.733 19.7358C193.349 21.9553 194.183 23.7745 195.244 25.1817L195.255 25.1703ZM196.26 7.73418C196.762 6.13244 197.39 4.86249 198.177 3.93577C198.953 3.00905 199.741 2.53997 200.54 2.53997C201.464 2.53997 202.274 3.16922 202.971 4.42773L203.359 5.24004C203.53 5.54895 203.701 5.91506 203.872 6.34982C204.169 7.05916 204.409 7.99732 204.58 9.1643C204.751 10.3198 204.842 11.5669 204.842 12.8826C204.842 15.1365 204.546 17.2531 203.952 19.2324C203.359 21.2117 202.411 22.7677 201.122 23.8889C200.836 24.152 200.505 24.2779 200.117 24.2779C199.41 24.2779 198.702 23.763 197.995 22.7219C197.287 21.6808 196.739 20.3879 196.328 18.8205C195.792 16.8527 195.518 14.9077 195.518 13.0085C195.518 11.1093 195.769 9.34736 196.26 7.74562V7.73418Z" fill="black"/>
<path d="M60.3421 23.3167C60.1024 23.2137 59.8285 23.1565 59.4975 23.1565C59.372 23.1565 59.1323 23.1794 58.7899 23.2252C58.5274 23.2709 58.2421 23.3396 57.9339 23.454C57.6258 23.557 57.4089 23.637 57.3062 23.6828C57.0894 23.7743 56.7698 23.8773 56.3361 24.0032L55.5942 24.232C55.1149 24.4265 54.7154 24.5409 54.3959 24.5867C53.8138 24.6896 53.2089 24.7697 52.5812 24.8155L52.5469 23.8087L52.5812 23.0993L52.6497 22.2184C52.8893 19.4039 53.0035 17.3559 53.0035 16.0745L54.7497 16.0402L55.4345 16.0059C55.754 16.0059 56.1991 15.983 56.7584 15.9373C56.9068 15.9373 57.0551 15.9029 57.1921 15.8457C57.329 15.7771 57.4203 15.7428 57.466 15.7199C57.6372 15.6512 57.7285 15.5597 57.7285 15.4224C57.7285 15.2279 57.5573 15.0334 57.2263 14.8389C56.8953 14.6444 56.5187 14.5415 56.1078 14.5186C55.9138 14.4957 55.6057 14.4728 55.172 14.4499C54.7383 14.427 54.4073 14.4156 54.1676 14.4156L52.7752 14.347C52.7296 13.8436 52.5127 11.8871 52.1247 8.46628C51.9078 6.71581 51.7708 5.53739 51.7024 4.93102L51.5768 3.07757L52.2844 3.1119L54.4187 3.18054L57.5345 3.21487C58.1394 3.21487 58.5959 3.02037 58.8926 2.63137C58.9954 2.48264 59.0524 2.32247 59.0524 2.17373C59.0524 1.95636 58.9611 1.78474 58.7557 1.65889C58.2763 1.41863 57.9111 1.28134 57.6486 1.23557C56.0279 0.949548 54.5328 0.812256 53.1747 0.812256C52.3073 0.812256 51.4513 0.880902 50.5839 1.00675C49.8306 1.1326 49.26 1.45295 48.8833 1.94491C48.5067 2.44832 48.267 3.04325 48.1757 3.72971C48.073 4.42761 48.0273 5.28569 48.0273 6.32682L48.0616 13.3745C48.0616 15.6055 48.0616 17.0699 48.0273 17.7564V19.4496C48.0273 21.1429 48.0958 22.4586 48.2442 23.3968C48.3811 24.3349 48.8034 25.1473 49.511 25.8108C50.2073 26.4859 51.3257 26.8176 52.8323 26.8176C54.1334 26.8176 55.3888 26.5888 56.61 26.1197C57.8312 25.6507 59.0524 24.9985 60.285 24.1519C60.3307 24.129 60.3649 24.0947 60.3992 24.0604C60.4334 24.0146 60.4562 23.9803 60.4791 23.9574C60.5475 23.8888 60.5704 23.8087 60.5704 23.6943C60.5704 23.4998 60.4905 23.3739 60.3421 23.3053V23.3167Z" fill="black"/>
<path d="M146.509 4.13021C146.68 4.13021 147.011 4.08444 147.479 4.00436C147.764 3.93571 148.118 3.8785 148.552 3.8213C148.986 3.7641 149.362 3.72977 149.682 3.70689C149.705 3.99292 149.716 4.37047 149.716 4.83955V10.9834C149.716 14.061 149.716 16.5551 149.682 18.4887C149.659 19.198 149.716 20.3421 149.842 21.8981C149.933 22.985 150.15 24.1405 150.492 25.3761C150.618 25.8338 150.926 26.2914 151.417 26.7605C151.907 27.2296 152.341 27.4584 152.729 27.4584C153.014 27.4584 153.22 27.3097 153.345 27.0008C153.825 25.3533 154.053 22.7676 154.053 19.2323C154.053 16.9784 153.95 14.6674 153.733 12.2762L153.574 10.56C153.208 7.01334 152.98 4.72514 152.889 3.70689L157.397 3.58104C157.934 3.55816 158.401 3.44375 158.79 3.23781C159.178 3.03187 159.372 2.79161 159.372 2.50559C159.372 2.18524 159.075 1.91065 158.47 1.69327C158.344 1.64751 157.979 1.57886 157.374 1.46445C156.769 1.36149 156.21 1.26996 155.685 1.20131C154.647 1.09834 153.734 1.04114 152.935 1.04114C150.344 1.04114 147.787 1.48734 145.254 2.36829C144.991 2.43694 144.763 2.53991 144.569 2.68864C144.375 2.83737 144.34 2.99755 144.477 3.1806C145.037 3.80986 145.721 4.11877 146.52 4.11877L146.509 4.13021Z" fill="black"/>
</svg>
