<svg  viewBox="0 0 33 33" fill="none" xmlns="http://www.w3.org/2000/svg">
<path fill-rule="evenodd" clip-rule="evenodd" d="M26.9952 11.3677C27.1482 10.8578 26.9952 10.483 26.2673 10.483H23.8605C23.2485 10.483 22.9666 10.8067 22.8136 11.1638C22.8136 11.1638 21.5895 14.1471 19.8556 16.0849C19.2946 16.6458 19.0397 16.8241 18.7337 16.8241C18.5807 16.8241 18.3593 16.6458 18.3593 16.1359V11.3677C18.3593 10.7557 18.1817 10.483 17.6716 10.483H13.8895C13.5071 10.483 13.2771 10.767 13.2771 11.0363C13.2771 11.6165 14.1439 11.7502 14.2333 13.382V16.9264C14.2333 17.7035 14.093 17.8444 13.787 17.8444C12.9711 17.8444 10.9865 14.8476 9.80922 11.4188C9.57851 10.7523 9.34712 10.483 8.732 10.483H6.32519C5.63753 10.483 5.5 10.8067 5.5 11.1638C5.5 11.8013 6.31608 14.9631 9.29932 19.1448C11.2884 22.0003 14.0903 23.5486 16.6401 23.5486C18.1701 23.5486 18.3593 23.2048 18.3593 22.6125V20.4541C18.3593 19.7664 18.5042 19.6293 18.9885 19.6293C19.3457 19.6293 19.9575 19.8077 21.3856 21.1846C23.0175 22.8162 23.2863 23.5486 24.2044 23.5486H26.6112C27.2988 23.5486 27.6427 23.2048 27.4443 22.5262C27.2273 21.8499 26.4482 20.8689 25.4143 19.7058C24.8533 19.0427 24.0118 18.3287 23.757 17.9718C23.4 17.5128 23.5019 17.3089 23.757 16.9011C23.757 16.9011 26.6892 12.7704 26.9952 11.3679V11.3677Z" fill="currentColor"/>
</svg>
