<svg viewBox="0 0 33 33" fill="none" xmlns="http://www.w3.org/2000/svg">
<path d="M23.8912 9.0829C22.1223 7.26195 19.677 6.27344 17.1797 6.27344C11.8729 6.27344 7.60671 10.5917 7.65874 15.8464C7.65874 17.5113 8.12698 19.1241 8.90739 20.5809L7.55469 25.5234L12.6013 24.2228C14.006 25.0032 15.5668 25.3674 17.1277 25.3674C22.3824 25.3674 26.6486 21.0491 26.6486 15.7944C26.6486 13.2451 25.6601 10.8518 23.8912 9.0829ZM17.1797 23.7545C15.775 23.7545 14.3702 23.3903 13.1736 22.662L12.8614 22.5059L9.84388 23.2863L10.6243 20.3207L10.4162 20.0086C8.12698 16.3147 9.21955 11.4241 12.9655 9.13492C16.7114 6.84573 21.55 7.9383 23.8391 11.6842C26.1283 15.4302 25.0358 20.2687 21.2898 22.5579C20.0932 23.3383 18.6364 23.7545 17.1797 23.7545ZM21.7581 17.9795L21.1858 17.7194C21.1858 17.7194 20.3533 17.3552 19.8331 17.0951C19.781 17.0951 19.729 17.043 19.677 17.043C19.5209 17.043 19.4169 17.0951 19.3128 17.1471C19.3128 17.1471 19.2608 17.1991 18.5324 18.0315C18.4804 18.1356 18.3763 18.1876 18.2723 18.1876H18.2202C18.1682 18.1876 18.0641 18.1356 18.0121 18.0836L17.752 17.9795C17.1797 17.7194 16.6594 17.4072 16.2432 16.991C16.1391 16.887 15.9831 16.7829 15.879 16.6788C15.5148 16.3147 15.1506 15.8984 14.8905 15.4302L14.8385 15.3261C14.7864 15.2741 14.7864 15.2221 14.7344 15.118C14.7344 15.014 14.7344 14.9099 14.7864 14.8579C14.7864 14.8579 14.9946 14.5978 15.1506 14.4417C15.2547 14.3376 15.3067 14.1815 15.4108 14.0775C15.5148 13.9214 15.5668 13.7133 15.5148 13.5572C15.4628 13.2971 14.8385 11.8924 14.6824 11.5802C14.5783 11.4241 14.4743 11.3721 14.3182 11.3201H14.1621C14.0581 11.3201 13.902 11.3201 13.7459 11.3201C13.6418 11.3201 13.5378 11.3721 13.4337 11.3721L13.3817 11.4241C13.2777 11.4761 13.1736 11.5802 13.0696 11.6322C12.9655 11.7363 12.9135 11.8403 12.8094 11.9444C12.4452 12.4126 12.2371 12.9849 12.2371 13.5572C12.2371 13.9734 12.3412 14.3897 12.4973 14.7538L12.5493 14.9099C13.0175 15.8984 13.6418 16.7829 14.4743 17.5633L14.6824 17.7714C14.8385 17.9275 14.9946 18.0315 15.0986 18.1876C16.1912 19.1241 17.4398 19.8005 18.8446 20.1647C19.0006 20.2167 19.2087 20.2167 19.3648 20.2687C19.5209 20.2687 19.729 20.2687 19.8851 20.2687C20.1452 20.2687 20.4574 20.1647 20.6655 20.0606C20.8216 19.9565 20.9256 19.9565 21.0297 19.8525L21.1337 19.7484C21.2378 19.6444 21.3419 19.5924 21.4459 19.4883C21.55 19.3842 21.654 19.2802 21.706 19.1761C21.8101 18.968 21.8621 18.7079 21.9141 18.4478C21.9141 18.3437 21.9141 18.1876 21.9141 18.0836C21.9141 18.0836 21.8621 18.0315 21.7581 17.9795Z" fill="currentColor"/>
</svg>
