<svg  viewBox="0 0 67 67" fill="none" xmlns="http://www.w3.org/2000/svg">
<path d="M57.1483 9.73371C53.7758 6.39802 49.7378 3.81251 45.2982 2.14633C40.8587 0.48014 36.1178 -0.22919 31.3856 0.0647272L66.9112 35.5499C67.22 30.7985 66.5085 26.0361 64.8245 21.583C63.1405 17.1299 60.523 13.0895 57.1483 9.73371ZM9.7224 57.1842C13.0993 60.552 17.1526 63.1631 21.6138 64.8446C26.0751 66.5261 30.8423 67.2396 35.5998 66.9378L0.0741975 31.3681C-0.242014 36.1102 0.454907 40.8654 2.11854 45.3169C3.78218 49.7684 6.37435 53.814 9.7224 57.1842ZM9.7224 9.81831C6.00898 13.5494 3.22681 18.1042 1.60173 23.1132L43.9379 65.415C48.9452 63.8018 53.498 61.021 57.2213 57.3017C60.9446 53.5824 63.7319 49.031 65.3535 44.0223L23.0173 1.72054C18.0067 3.32611 13.4496 6.10178 9.7224 9.81831Z" fill="#FDD300"/>
</svg>
