<svg  viewBox="0 0 130 130" fill="none" xmlns="http://www.w3.org/2000/svg">
<rect width="130" height="130" fill="#00BEFA"/>
<path d="M100.285 36.3711C101.73 36.3853 103.147 35.9693 104.355 35.1758C105.563 34.3823 106.509 33.2472 107.072 31.9145C107.634 30.5819 107.789 29.1118 107.516 27.6909C107.243 26.2701 106.554 24.9626 105.537 23.9344C104.521 22.9062 103.222 22.2037 101.806 21.9162C100.39 21.6286 98.92 21.769 97.5836 22.3193C96.2473 22.8697 95.1044 23.8053 94.3001 25.0074C93.4957 26.2094 93.0663 27.6237 93.0662 29.0706C93.0567 30.0259 93.2365 30.9736 93.595 31.859C93.9535 32.7443 94.4838 33.5497 95.1551 34.2285C95.8263 34.9074 96.6253 35.4463 97.5059 35.814C98.3864 36.1818 99.331 36.3711 100.285 36.3711ZM81.1622 73.1126L73.9433 86.6762C60.371 79.2688 49.4421 67.8093 42.6773 53.8921L56.39 47.1581C52.5684 39.2068 50.5987 30.4907 50.6293 21.6665H21.666C21.666 69.961 60.5174 109.2 108.333 109.2V79.9503C98.8586 79.9321 89.5339 77.5841 81.1781 73.1126H81.1622Z" fill="white"/>
</svg>
