<svg viewBox="0 0 60 60" fill="none" xmlns="http://www.w3.org/2000/svg">
<path d="M15.4311 23.3628L4.31996 34.7392C1.54215 37.5122 -0.0219546 41.2768 -0.0283009 45.2048C-0.0346473 49.1328 1.51732 52.9024 4.28616 55.6844C7.055 58.4664 10.8139 60.0329 14.736 60.0392C18.6581 60.0456 22.422 58.4913 25.1998 55.7183L36.311 44.3306L15.4311 23.3628Z" fill="#FF2222"/>
<path d="M55.6681 4.32676C52.899 1.55415 49.1437 -0.00341797 45.2281 -0.00341797C41.3125 -0.00341797 37.5573 1.55415 34.7882 4.32676L22.6055 16.7538L43.4966 37.6764L55.6681 25.2494C57.0406 23.876 58.1293 22.2452 58.8722 20.4502C59.615 18.6552 59.9974 16.7312 59.9974 14.7881C59.9974 12.845 59.615 10.921 58.8722 9.12595C58.1293 7.33093 57.0406 5.70014 55.6681 4.32676Z" fill="#FDD300"/>
</svg>
