<svg  viewBox="0 0 272 249" fill="none" xmlns="http://www.w3.org/2000/svg">
<path d="M121 0C120.969 12.3238 123.384 24.5329 128.109 35.929C132.833 47.3251 139.773 57.6845 148.533 66.4149C157.292 75.1453 167.699 82.0753 179.157 86.8086C190.616 91.5419 202.902 93.9856 215.313 94H250C250.031 81.6762 247.616 69.4671 242.891 58.071C238.167 46.6749 231.227 36.3155 222.467 27.5851C213.708 18.8547 203.301 11.9247 191.843 7.19139C180.384 2.45809 168.098 0.0143631 155.687 0H121Z" fill="#61E354"/>
<path d="M212 249C245.137 249 272 221.913 272 188.5C272 155.087 245.137 128 212 128C178.863 128 152 155.087 152 188.5C152 221.913 178.863 249 212 249Z" fill="#FF5A02"/>
<path d="M60 245C93.1371 245 120 217.913 120 184.5C120 151.087 93.1371 124 60 124C26.8629 124 0 151.087 0 184.5C0 217.913 26.8629 245 60 245Z" fill="#FF5A02"/>
</svg>
