<svg  viewBox="0 0 17 16" fill="none" xmlns="http://www.w3.org/2000/svg">
<path fill-rule="evenodd" clip-rule="evenodd" d="M12.2778 4.02941C12.2778 5.97865 10.5864 7.55882 8.5 7.55882C6.41359 7.55882 4.72222 5.97865 4.72222 4.02941C4.72222 2.08017 6.41359 0.5 8.5 0.5C10.5864 0.5 12.2778 2.08017 12.2778 4.02941ZM0 15.5C0 11.1212 3.81286 7.55882 8.49794 7.55882C13.1841 7.55882 16.9959 11.1203 17 15.5H12.1709C12.1791 15.0496 12.0902 14.6022 11.9095 14.1838C11.7288 13.7655 11.4599 13.3846 11.1185 13.0634C10.777 12.7422 10.3699 12.4871 9.92076 12.313C9.47164 12.1389 8.98954 12.0492 8.50257 12.0492C8.0156 12.0492 7.5335 12.1389 7.08438 12.313C6.63526 12.4871 6.22811 12.7422 5.88666 13.0634C5.54522 13.3846 5.27631 13.7655 5.09562 14.1838C4.91493 14.6022 4.82607 15.0496 4.83422 15.5H0Z" fill="#FDD300"/>
</svg>
