<svg  viewBox="0 0 233 249" fill="none" xmlns="http://www.w3.org/2000/svg">
<path d="M142.081 141.999H91.2085C77.3792 141.986 63.7339 138.815 51.3044 132.727C38.8748 126.639 27.9862 117.794 19.4619 106.858C6.91285 90.5951 0.0704932 70.6218 0 50.0479V0H51.1623V24.4695L180.462 25.033L180.172 0H233V50.0479C232.955 70.6112 226.145 90.5834 213.629 106.858C205.193 117.842 194.351 126.726 181.943 132.821C169.534 138.915 155.894 142.056 142.081 141.999Z" fill="#FF5A02"/>
<path d="M129.39 205.92V160H103.61V205.902C94.4238 208.734 86.3903 214.453 80.6976 222.214C75.005 229.976 71.9557 239.367 72.0005 249H161C161.041 239.37 157.989 229.983 152.297 222.225C146.605 214.467 138.573 208.751 129.39 205.92Z" fill="#263472"/>
</svg>
