<svg  viewBox="0 0 100 114" fill="none" xmlns="http://www.w3.org/2000/svg">
<path d="M0 0H50V114L17.6666 99.418C6.91318 94.5683 0 83.8668 0 72.0705V0Z" fill="#61E354"/>
<path d="M100 0H50V114L82.3334 99.418C93.0868 94.5683 100 83.8668 100 72.0705V0Z" fill="#00BEFA"/>
<path d="M49.9536 84.9047C44.5288 84.9344 39.2874 82.9757 35.252 79.4108C30.8145 75.5197 27.9457 70.1911 27.168 64.395C26.7031 60.5327 27.2066 56.6172 28.6345 52.9902C30.627 47.709 33.1397 42.6319 36.1368 37.8314C40.2201 30.8553 44.6701 24.093 49.4688 17.572V17.429C49.9051 16.857 49.9051 16.857 50.3414 17.429C50.7777 18.0011 51.3716 18.871 51.9655 19.598C57.8416 27.7506 63.1462 36.2873 67.8427 45.1486C69.7836 48.7239 71.3122 52.5013 72.3998 56.4104C73.2001 59.7331 73.2001 63.1936 72.3998 66.5163C71.4472 70.9917 69.1996 75.1011 65.9277 78.3502C62.3316 82.0312 57.5544 84.3799 52.4018 85C51.5897 84.9037 50.7709 84.8718 49.9536 84.9047Z" fill="#EDF5FD"/>
</svg>
