<svg  viewBox="0 0 87 59" fill="none" xmlns="http://www.w3.org/2000/svg">
<path d="M23.4841 35.01L34.4919 23.8197C36.8138 24.9974 39.4469 25.4047 42.0132 24.9831C44.5795 24.5614 46.947 23.3326 48.7759 21.473C51.101 19.0932 52.4039 15.8898 52.4039 12.5529C52.4039 9.21593 51.101 6.0125 48.7759 3.63271C46.7771 1.63384 44.1619 0.378442 41.36 0.0728104C38.5581 -0.232822 35.7363 0.42949 33.3581 1.95092C30.9799 3.47234 29.1868 5.76237 28.2736 8.44472C27.3603 11.1271 27.3812 14.0422 28.3328 16.711L16.502 28.7346C14.2968 27.9652 11.9214 27.8336 9.64558 28.3547C7.3698 28.8758 5.28497 30.0288 3.62802 31.6825C1.3029 34.0623 -1.62893e-06 37.2656 -1.7748e-06 40.6026C-1.92066e-06 43.9395 1.3029 47.1429 3.62802 49.5227C4.7765 50.6908 6.14386 51.6181 7.65096 52.251C9.15806 52.8839 10.775 53.2098 12.4081 53.2098C14.0412 53.2098 15.6581 52.8839 17.1652 52.251C18.6723 51.6181 20.0397 50.6908 21.1882 49.5227C23.0211 47.6428 24.2269 45.2356 24.6383 42.635C25.0497 40.0345 24.6463 37.3695 23.4841 35.01ZM55.7737 55.3183C57.6084 53.4396 58.8162 51.033 59.2295 48.4323C59.6427 45.8317 59.2411 43.1661 58.0802 40.8056L69.088 29.6153C71.4099 30.793 74.043 31.2002 76.6093 30.7786C79.1756 30.357 81.5431 29.1282 83.372 27.2686C85.6971 24.8888 87 21.6854 87 18.3484C87 15.0115 85.6971 11.8081 83.372 9.42829C81.3732 7.42942 78.758 6.17402 75.9561 5.86838C73.1542 5.56275 70.3323 6.22506 67.9541 7.74649C65.5759 9.26792 63.7829 11.558 62.8697 14.2403C61.9564 16.9227 61.9773 19.8378 62.9288 22.5066L51.098 34.5302C48.8929 33.7608 46.5174 33.6292 44.2417 34.1503C41.9659 34.6714 39.881 35.8243 38.2241 37.478C35.899 39.8578 34.5961 43.0613 34.5961 46.3982C34.5961 49.7351 35.899 52.9385 38.2241 55.3183C39.3724 56.4848 40.7391 57.4108 42.2452 58.0427C43.7514 58.6746 45.367 59 46.9989 59C48.6308 59 50.2465 58.6746 51.7526 58.0427C53.2587 57.4108 54.6254 56.4848 55.7737 55.3183Z" fill="#FF5A02"/>
</svg>
