<svg  viewBox="0 0 131 249" fill="none" xmlns="http://www.w3.org/2000/svg">
<path d="M117.016 84.9444C116.71 84.3292 116.404 84.0217 116.098 83.4798L65.8016 0L15.1992 83.3773C9.17546 92.8985 5.98393 103.95 6.00006 115.231C6.00006 131.083 12.2683 146.285 23.4259 157.494C34.5834 168.703 49.7163 175 65.4954 175C81.2746 175 96.4075 168.703 107.565 157.494C118.723 146.285 124.991 131.083 124.991 115.231C125.181 104.588 122.42 94.1012 117.016 84.9444Z" fill="#FF5A02"/>
<path d="M66 134C76.4934 134 85 125.717 85 115.5C85 105.283 76.4934 97 66 97C55.5066 97 47 105.283 47 115.5C47 125.717 55.5066 134 66 134Z" fill="#FDD300"/>
<path d="M131 225.505L65.9711 185L0 226.427L14.5605 249L65.9711 216.546L117.073 248.693L131 225.505Z" fill="#263472"/>
</svg>
