<svg  viewBox="0 0 422 517" fill="none" xmlns="http://www.w3.org/2000/svg">
<path d="M128.994 440.202C116.446 418.903 98.8613 400.988 77.7735 388.018C98.8618 375.044 116.446 357.124 128.994 335.822C141.542 357.124 159.126 375.044 180.214 388.018C159.127 400.988 141.542 418.903 128.994 440.202ZM258 366.05C199.382 366.05 151.692 318.02 151.692 259H106.308C106.308 318.02 58.6184 366.038 0 366.05V409.95C58.6184 409.95 106.308 457.98 106.308 517H151.68C151.68 457.98 199.37 409.962 257.988 409.95L258 366.05Z" fill="#61E354"/>
<path d="M384.5 46.0597C339.248 46.0597 302.435 83.4798 302.435 129.476C302.435 175.472 339.248 212.892 384.5 212.892C429.752 212.892 466.553 175.472 466.553 129.476C466.553 83.4798 429.74 46.0597 384.5 46.0597ZM384.5 257C315.32 257 259 199.793 259 129.5C259 59.2066 315.272 2 384.5 2C453.728 2 510 59.2066 510 129.5C510 199.793 453.728 257 384.5 257Z" fill="#FDD300"/>
<path d="M384.5 441.651C429.737 441.651 466.548 404.407 466.548 358.628H419.937C419.937 363.286 419.021 367.899 417.241 372.202C415.461 376.506 412.853 380.416 409.564 383.71C406.276 387.004 402.372 389.617 398.076 391.399C393.779 393.182 389.174 394.1 384.524 394.1C379.873 394.1 375.269 393.182 370.972 391.399C366.676 389.617 362.772 387.004 359.483 383.71C356.195 380.416 353.586 376.506 351.807 372.202C350.027 367.899 349.111 363.286 349.111 358.628H302.5C302.5 404.407 339.311 441.651 384.56 441.651M512 517H257V259H512V517Z" fill="#00BEFA"/>
<path d="M175.878 82.0671H82.1099V176.933H175.878V82.0671ZM257 259H1V0H257V259Z" fill="#FF5A02"/>
</svg>
