<svg viewBox="0 0 262 250" fill="none" xmlns="http://www.w3.org/2000/svg">
<path fill-rule="evenodd" clip-rule="evenodd" d="M131.425 122.763C131.478 123.129 131.534 123.495 131.593 123.86C148.926 125.926 166.501 124.083 183.032 118.466C199.563 112.849 214.633 103.598 227.14 91.3923C254.13 65.4181 265.871 30.9886 260.878 0.820602C243.72 -1.24535 226.317 0.601843 209.971 6.22398C193.625 11.8461 178.757 21.098 166.479 33.2885C146.725 52.2982 134.598 75.8367 131.419 98.919C128.233 75.8349 116.116 52.2945 96.438 33.2832C84.2137 21.1015 69.4142 11.8546 53.1432 6.23241C36.8721 0.610246 19.5497 -1.24211 2.468 0.813444C0.418857 17.5183 2.40385 34.4741 8.25465 50.2422C14.1055 66.0104 23.6494 80.1257 36.0767 91.3904C48.5355 103.597 63.5474 112.848 80.0152 118.466C96.4829 124.083 113.99 125.926 131.257 123.86C131.315 123.495 131.371 123.129 131.425 122.763ZM130.568 223.575C127.357 200.499 115.165 176.968 95.3679 157.964C83.0658 145.783 68.1721 136.536 51.7975 130.914C35.423 125.292 17.9903 123.44 0.799883 125.495C-1.27959 142.201 0.709977 159.161 6.59911 174.932C12.4882 190.702 22.1024 204.816 34.6225 216.07C47.1577 228.28 62.265 237.533 78.8383 243.151C95.4116 248.769 113.031 250.61 130.408 248.538C130.471 248.152 130.53 247.764 130.587 247.375C130.644 247.765 130.704 248.154 130.767 248.542C148.03 250.608 165.533 248.765 181.998 243.148C198.462 237.53 213.471 228.28 225.927 216.074C238.356 204.813 247.901 190.699 253.751 174.931C259.6 159.163 261.582 142.207 259.528 125.502C242.439 123.436 225.108 125.283 208.828 130.906C192.548 136.528 177.74 145.78 165.511 157.97C145.845 176.973 133.732 200.501 130.568 223.575Z" fill="#61E354"/>
</svg>
