<svg  viewBox="0 0 340 249" fill="none" xmlns="http://www.w3.org/2000/svg">
<path d="M252.5 111C283.152 111 308 86.1518 308 55.5C308 24.8482 283.152 0 252.5 0C221.848 0 197 24.8482 197 55.5C197 86.1518 221.848 111 252.5 111Z" fill="#FDD300"/>
<path d="M183.891 249H156.4L151.276 236.043C146.311 222.597 137.34 210.995 125.572 202.8C113.805 194.604 99.8057 190.21 85.4614 190.208C74.9274 190.179 64.5262 192.556 55.0518 197.156C45.5774 201.757 37.2804 208.46 30.7943 216.753L0 192.319C10.1316 179.562 22.991 169.231 37.6362 162.082C52.2814 154.934 68.3415 151.149 84.6404 151.004C100.939 150.86 117.064 154.36 131.834 161.248C146.603 168.137 159.644 178.239 170 190.814C180.356 178.239 193.397 168.137 208.166 161.248C222.936 154.36 239.061 150.86 255.36 151.004C271.658 151.149 287.719 154.934 302.364 162.082C317.009 169.231 329.868 179.562 340 192.319L309.206 216.753C302.72 208.46 294.423 201.757 284.948 197.156C275.474 192.556 265.073 190.179 254.539 190.208C240.203 190.247 226.221 194.657 214.461 202.847C202.701 211.038 193.722 222.619 188.724 236.043L183.891 249Z" fill="#00BEFA"/>
</svg>
