<svg  viewBox="0 0 17 18" fill="none" xmlns="http://www.w3.org/2000/svg">
<path d="M17 7.55308C15.1429 7.54979 13.3628 6.80564 12.0496 5.48365C10.7364 4.16165 9.99721 2.36958 9.99394 0.5H7.00606C7.00306 2.36967 6.26396 4.16189 4.95072 5.48395C3.63748 6.806 1.8572 7.55006 0 7.55308V10.4469C1.85712 10.4502 3.63724 11.1944 4.95042 12.5164C6.26361 13.8383 7.00279 15.6304 7.00606 17.5H9.99394C9.99748 15.6305 10.7368 13.8386 12.0499 12.5167C13.363 11.1947 15.143 10.4505 17 10.4469V7.55308ZM8.49382 12.4436C7.66467 11.035 6.50502 9.85258 5.11648 9C6.50474 8.14751 7.66433 6.96553 8.49382 5.55747C9.32396 6.96537 10.4838 8.14728 11.8722 9C10.4836 9.85285 9.32366 11.0352 8.49382 12.4436Z" fill="#61E354"/>
</svg>
