<svg  viewBox="0 0 61 54" fill="none" xmlns="http://www.w3.org/2000/svg">
<path d="M28.7834 54C19.941 44.6678 11.0986 36.0224 3.1119 26.6094C0.870908 23.4631 -0.214938 19.6505 0.0353009 15.8068C0.28554 11.9631 1.85671 8.32045 4.48708 5.48587C7.11745 2.65129 10.6482 0.795965 14.4909 0.228979C18.3335 -0.338006 22.2561 0.417608 25.6051 2.36994C26.9438 3.49196 28.6401 4.10757 30.393 4.10757C32.146 4.10757 33.8423 3.49196 35.181 2.36994C38.6286 0.307623 42.7141 -0.444165 46.6785 0.254254C50.643 0.952672 54.217 3.05384 56.737 6.16747C59.5484 9.22002 61.0731 13.2247 60.9973 17.3577C60.9215 21.4907 59.251 25.4378 56.3295 28.387C47.6501 37.1132 38.2371 45.2738 28.7834 54Z" fill="#FF2222"/>
</svg>
