<svg  viewBox="0 0 329 251" fill="none" xmlns="http://www.w3.org/2000/svg">
<path d="M180.098 7.38171L164.56 0L120 21.0528L312.684 112L329 77.4417L180.098 7.38171Z" fill="#61E354"/>
<path d="M164.275 0L119.715 21.0528L0 77.4417L16.1674 112L209 21.0528L164.275 0Z" fill="#61E354"/>
<path d="M105 192C124.882 192 141 175.882 141 156C141 136.118 124.882 120 105 120C85.1178 120 69 136.118 69 156C69 175.882 85.1178 192 105 192Z" fill="#FF5A02"/>
<path d="M105.092 192C97.1906 192 89.367 193.527 82.0687 196.493C74.7704 199.46 68.1407 203.807 62.5592 209.288C56.9776 214.768 52.5537 221.273 49.5407 228.43C46.5277 235.588 44.9848 243.257 45.0001 251H165C165.031 235.394 158.739 220.414 147.506 209.351C136.273 198.288 121.018 192.048 105.092 192Z" fill="#FF5A02"/>
<path d="M224.5 192C244.106 192 260 175.882 260 156C260 136.118 244.106 120 224.5 120C204.894 120 189 136.118 189 156C189 175.882 204.894 192 224.5 192Z" fill="#FF5A02"/>
<path d="M224.582 192C216.748 192 208.991 193.527 201.754 196.493C194.518 199.46 187.945 203.807 182.41 209.288C176.876 214.768 172.49 221.273 169.502 228.43C166.515 235.588 164.985 243.257 165 251H283.999C284.041 243.264 282.534 235.596 279.566 228.438C276.598 221.279 272.228 214.771 266.706 209.288C261.184 203.805 254.62 199.454 247.391 196.488C240.161 193.521 232.41 191.996 224.582 192Z" fill="#FF5A02"/>
</svg>
