<svg  viewBox="0 0 61 59" fill="none" xmlns="http://www.w3.org/2000/svg">
<path d="M0.0722656 13.277C0.0722656 13.277 5.68947 0 30.4988 0C55.3081 0 60.9253 13.277 60.9253 13.277V35.9586C59.3148 35.9586 53.1803 35.9586 53.1803 35.9586V25.4476H7.81719V35.4054C7.81719 35.4054 1.64059 35.9586 0.0722656 35.9586V13.277Z" fill="#FF2222"/>
<path d="M4.84302 58.6397L0.0735782 35.9582L5.14881 35.0308C10.6673 34.0225 16.1488 37.7213 17.2864 43.221L17.9547 46.4523C19.0734 51.8607 15.5582 56.9446 10.1031 57.8075L4.84302 58.6397Z" fill="#FF2222"/>
<path d="M56.1585 58.6397L60.9264 35.9582L55.8529 35.0311C50.3344 34.0226 44.8527 37.7214 43.7151 43.2212L43.0468 46.4523C41.9281 51.8607 45.4434 56.9446 50.8984 57.8075L56.1585 58.6397Z" fill="#FF2222"/>
</svg>
