<svg  viewBox="0 0 27 34" fill="none" xmlns="http://www.w3.org/2000/svg">
<path d="M4.02723 7.50049L7.83605 7.50049C8.24443 6.39375 8.98528 5.4382 9.95844 4.76316C10.9316 4.08812 12.0901 3.72613 13.2772 3.72613C14.4644 3.72613 15.6229 4.08812 16.596 4.76316C17.5692 5.4382 18.31 6.39375 18.7184 7.50049L22.5 7.50049C22.0651 5.38333 20.9068 3.48041 19.2212 2.1137C17.5356 0.747001 15.4262 0.000488259 13.25 0.000488354C11.0738 0.000488449 8.96437 0.747001 7.27878 2.1137C5.59318 3.48041 4.43491 5.38333 4 7.50049L4.02723 7.50049Z" fill="#FF5A02"/>
<path fill-rule="evenodd" clip-rule="evenodd" d="M0 12.5H27V21.4055V21.6821C26.6341 25.0679 25.0543 28.1971 22.5631 30.4701C20.072 32.7431 16.8448 34 13.5 34C10.1552 34 6.928 32.7431 4.43686 30.4701C1.94573 28.1971 0.365856 25.0679 0 21.6821V21.4055V12.5ZM16.5004 20.9996C16.5004 22.1103 15.8969 23.08 14.9999 23.5986V27.4997H11.9999V23.598C11.1035 23.0792 10.5004 22.1098 10.5004 20.9996C10.5004 19.3428 11.8436 17.9996 13.5004 17.9996C15.1573 17.9996 16.5004 19.3428 16.5004 20.9996Z" fill="#61E354"/>
</svg>
