<svg  viewBox="0 0 269 249" fill="none" xmlns="http://www.w3.org/2000/svg">
<path d="M181.754 0C166.162 0.0553242 151.227 6.28774 140.221 17.3321C129.216 28.3764 123.036 43.3323 123.036 58.9237V90.1342C112.909 82.3518 100.49 78.1411 87.7179 78.1594C72.1258 78.2147 57.1911 84.4472 46.1853 95.4915C35.1796 106.536 28.9999 121.492 29 137.083H52.3997C52.3997 127.717 56.1207 118.734 62.7442 112.111C69.3676 105.488 78.351 101.767 87.7179 101.767C97.0849 101.767 106.068 105.488 112.692 112.111C119.315 118.734 123.036 127.717 123.036 137.083V249H146.189V58.9237C146.079 54.2157 146.912 49.5334 148.639 45.1519C150.365 40.7704 152.95 36.7782 156.241 33.4099C159.532 30.0415 163.464 27.365 167.804 25.5377C172.145 23.7103 176.807 22.769 181.516 22.769C186.226 22.769 190.888 23.7103 195.228 25.5377C199.569 27.365 203.5 30.0415 206.792 33.4099C210.083 36.7782 212.668 40.7704 214.394 45.1519C216.12 49.5334 216.953 54.2157 216.844 58.9237H239.997C240.08 51.2202 238.635 43.5768 235.746 36.4351C232.856 29.2935 228.58 22.7952 223.164 17.316C217.749 11.8369 211.3 7.48542 204.193 4.51324C197.085 1.54106 189.458 0.00708958 181.754 0Z" fill="#61E354"/>
<path d="M43.9995 152.001H35.9997C26.4549 152.021 17.307 155.823 10.5596 162.573C3.81213 169.324 0.0150973 178.474 0 188.018V191.999H18.8189C21.5895 192.029 24.3387 191.509 26.9072 190.47C29.4757 189.431 31.8124 187.892 33.7822 185.944C35.7521 183.995 37.316 181.675 38.3832 179.118C39.4504 176.561 39.9998 173.818 39.9996 171.047C39.9995 173.818 40.5489 176.561 41.6161 179.118C42.6833 181.675 44.2472 183.995 46.217 185.944C48.1869 187.892 50.5236 189.431 53.0921 190.47C55.6606 191.509 58.4097 192.029 61.1804 191.999H79.9993V188.018C80.0296 183.281 79.1192 178.586 77.3211 174.203C75.5229 169.821 72.8727 165.839 69.524 162.489C66.1753 159.139 62.1949 156.486 57.8134 154.686C53.4319 152.886 48.7365 151.973 43.9995 152.001Z" fill="#00BEFA"/>
<path d="M233 78H225C215.452 78 206.296 81.7928 199.544 88.5441C192.793 95.2954 189 104.452 189 114V118H207.819C210.604 118.012 213.364 117.473 215.94 116.413C218.515 115.353 220.855 113.794 222.824 111.824C224.794 109.855 226.353 107.515 227.413 104.939C228.473 102.364 229.013 99.604 229 96.819C228.987 99.604 229.527 102.364 230.587 104.939C231.647 107.515 233.206 109.855 235.176 111.824C237.145 113.794 239.485 115.353 242.06 116.413C244.636 117.473 247.396 118.012 250.181 118H269V114C268.95 104.467 265.141 95.3399 258.401 88.5994C251.66 81.8589 242.532 78.05 233 78Z" fill="#00BEFA"/>
</svg>
