<svg viewBox="0 0 17 18" fill="none" xmlns="http://www.w3.org/2000/svg">
<path d="M14.1991 0.500324L8.5387 5.8584L10.1546 7.83188L15.815 2.4738L14.1991 0.500324Z" fill="#FF5A02"/>
<path d="M8.5 17.5C6.24644 17.4975 4.08588 16.6011 2.49237 15.0076C0.898851 13.4141 0.00251094 11.2536 0 9H4.83184C4.83184 9.97286 5.21831 10.9059 5.90623 11.5938C6.59414 12.2817 7.52715 12.6681 8.5 12.6681C9.47286 12.6681 10.4059 12.2817 11.0938 11.5938C11.7817 10.9059 12.1681 9.97286 12.1681 9H17C16.9975 11.2536 16.1011 13.4141 14.5076 15.0076C12.9141 16.6011 10.7536 17.4975 8.5 17.5Z" fill="#61E354"/>
</svg>
