<svg  viewBox="0 0 41 52" fill="none" xmlns="http://www.w3.org/2000/svg">
<path d="M27.2803 2.4523C25.2627 3.59558 23.555 5.20487 22.303 7.14269C21.0511 9.08052 20.292 11.2893 20.0908 13.5802C22.3545 14.3499 24.7652 14.6018 27.1415 14.3171C29.5178 14.0324 31.798 13.2184 33.8103 11.9365C35.8272 10.7923 37.5343 9.18283 38.7862 7.24517C40.0381 5.30751 40.7975 3.0992 40.9998 0.808533C38.7349 0.0465139 36.3255 -0.201402 33.9505 0.0831547C31.5755 0.367712 29.2957 1.17745 27.2803 2.4523Z" fill="#61E354"/>
<path d="M17.7693 52.0005C27.583 52.0005 35.5386 44.133 35.5386 34.428C35.5386 24.7229 27.583 16.8555 17.7693 16.8555C7.95559 16.8555 0 24.7229 0 34.428C0 44.133 7.95559 52.0005 17.7693 52.0005Z" fill="#FF5A02"/>
</svg>
