<svg  viewBox="0 0 70 50"  xmlns="http://www.w3.org/2000/svg">
<path fill-rule="evenodd" clip-rule="evenodd" d="M32 15.5C32 24.0604 24.8366 31 16 31C7.16345 31 0 24.0604 0 15.5C0 6.93959 7.16345 0 16 0C24.8366 0 32 6.93959 32 15.5ZM70 16C70 24.8366 62.8366 32 54 32C45.1634 32 38 24.8366 38 16C38 7.16345 45.1634 0 54 0C62.8366 0 70 7.16345 70 16ZM70 50C69.7765 45.678 67.9934 41.6107 65.0173 38.6346C62.0413 35.6586 58.0984 34 53.9999 34C49.9014 34 45.9587 35.6586 42.9827 38.6346C40.0066 41.6107 38.2235 45.678 38 50H70ZM27.3137 38.6863C30.3143 41.6869 32 45.7565 32 50H0C0 45.7565 1.68575 41.6869 4.68633 38.6863C7.6869 35.6857 11.7565 34 16 34C20.2435 34 24.3131 35.6857 27.3137 38.6863Z" fill="currentColor"/>
</svg>
