<svg  viewBox="0 0 189 236" fill="none" xmlns="http://www.w3.org/2000/svg">
<path d="M94 236C119.145 236 143.264 225.985 161.071 208.15C178.879 190.315 188.922 166.115 189 140.853V106C163.855 106 139.736 116.015 121.929 133.85C104.121 151.685 94.078 175.885 94 201.147V236Z" fill="#61E354"/>
<path d="M94 236C42.1516 236 0 193.594 0 141.001V106C51.8484 106 94 148.604 94 200.999V236Z" fill="#61E354"/>
<path d="M94.4364 93.8682C87.0068 93.9093 79.8284 91.2017 74.3016 86.2737C68.2241 80.8949 64.2952 73.5288 63.23 65.5166C62.5934 60.1775 63.283 54.765 65.2386 49.7511C67.9673 42.4506 71.4087 35.4323 75.5134 28.7963C81.1058 19.1529 87.2004 9.80504 93.7725 0.790739V0.59306C94.3701 -0.197687 94.37 -0.197687 94.9676 0.59306C95.5651 1.38381 96.3785 2.58639 97.1919 3.59129C105.24 14.8612 112.505 26.6618 118.937 38.9113C121.595 43.8537 123.688 49.0753 125.178 54.4791C126.274 59.0722 126.274 63.8559 125.178 68.449C123.873 74.6356 120.795 80.3162 116.314 84.8076C111.389 89.896 104.846 93.1427 97.7894 94C96.6771 93.8669 95.5558 93.8228 94.4364 93.8682Z" fill="#00BEFA"/>
</svg>
