<svg viewBox="0 0 85 45" fill="none" xmlns="http://www.w3.org/2000/svg">
<path d="M17.44 17.3974C19.8019 17.3985 22.139 16.9205 24.3064 15.9929C26.4739 15.0653 28.4257 13.7079 30.0412 12.0047C31.6454 13.6949 33.5809 15.0445 35.7298 15.9715C37.8787 16.8984 40.196 17.3833 42.5406 17.3964C44.8851 17.4096 47.2078 16.9508 49.3672 16.048C51.5267 15.1453 53.4776 13.8174 55.1011 12.1454C56.7121 13.8062 58.645 15.1293 60.7845 16.0356C62.924 16.942 65.2263 17.4131 67.554 17.4209C72.203 17.393 76.651 15.543 79.9218 12.2769C83.1925 9.0109 85.0188 4.59559 84.9999 0H75.0969C75.1471 1.97481 74.4029 3.8887 73.0278 5.32206C71.6526 6.75542 69.7586 7.59128 67.7609 7.64637C65.7632 7.70146 63.8251 6.97129 62.3712 5.61594C60.9173 4.26059 60.0664 2.39068 60.0052 0.416182V0H50.1615V0.416182C50.1002 2.39068 49.2494 4.26059 47.7955 5.61594C46.3416 6.97129 44.4034 7.70146 42.4057 7.64637C40.4081 7.59128 38.514 6.75542 37.1388 5.32206C35.7637 3.8887 35.0196 1.97481 35.0698 0H24.9889C25.0172 0.99712 24.8429 1.98972 24.4764 2.91912C24.1099 3.84853 23.5587 4.69586 22.8552 5.41102C22.1517 6.12618 21.3102 6.69466 20.3806 7.08284C19.451 7.47102 18.4521 7.67102 17.443 7.67102C16.4339 7.67102 15.435 7.47102 14.5054 7.08284C13.5758 6.69466 12.7344 6.12618 12.0309 5.41102C11.3274 4.69586 10.7762 3.84853 10.4097 2.91912C10.0432 1.98972 9.8689 0.99712 9.89718 0H0.000145812C-0.0125011 4.59053 1.81576 8.99893 5.08453 12.2597C8.35331 15.5205 12.7961 17.368 17.44 17.3974ZM67.631 35.0938C65.6953 35.069 63.8408 34.3208 62.4404 32.9996C61.04 31.6784 60.1975 29.8821 60.0822 27.9719V27.5615H50.1615V27.9719C50.0958 29.9428 49.2435 31.8079 47.7909 33.1596C46.3382 34.5112 44.4034 35.2395 42.4092 35.1853C40.415 35.1311 38.5236 34.2987 37.1483 32.8702C35.7731 31.4417 35.0258 29.5331 35.0698 27.5615H24.9889C25.0172 28.5587 24.8429 29.5513 24.4764 30.4807C24.1099 31.4101 23.5587 32.2574 22.8552 32.9726C22.1517 33.6877 21.3102 34.2562 20.3806 34.6444C19.451 35.0326 18.4521 35.2326 17.443 35.2326C16.4339 35.2326 15.435 35.0326 14.5054 34.6444C13.5758 34.2562 12.7344 33.6877 12.0309 32.9726C11.3274 32.2574 10.7762 31.4101 10.4097 30.4807C10.0432 29.5513 9.8689 28.5587 9.89718 27.5615H0.000145812C-0.0187879 32.1556 1.80687 36.5694 5.0765 39.8344C8.34612 43.0993 12.7925 44.9486 17.44 44.9765C19.8016 44.9787 22.1384 44.5018 24.3059 43.5752C26.4734 42.6486 28.4254 41.2921 30.0412 39.5897C31.6462 41.2787 33.5822 42.6273 35.7313 43.5532C37.8803 44.4792 40.1976 44.9632 42.5419 44.9758C44.8862 44.9884 47.2085 44.5294 49.3677 43.6266C51.5268 42.7238 53.4775 41.3962 55.1011 39.7245C56.7121 41.3853 58.645 42.7084 60.7845 43.6148C62.924 44.5211 65.2263 44.9922 67.554 45C72.202 44.9721 76.6491 43.1229 79.9197 39.8581C83.1902 36.5934 85.0172 32.1796 84.9999 27.585H75.0969C75.1102 28.5639 74.9271 29.5356 74.5583 30.4442C74.1894 31.3527 73.6421 32.18 72.9479 32.8782C72.2537 33.5764 71.4264 34.1317 70.5138 34.512C69.6012 34.8923 68.6214 35.09 67.631 35.0938Z" fill="#00BEFA"/>
</svg>
