<svg  viewBox="0 0 73 65" fill="none" xmlns="http://www.w3.org/2000/svg">
<path d="M14.6746 43.9967C16.8442 43.9896 18.9817 43.497 20.9139 42.5587C22.8461 41.6203 24.5187 40.2626 25.7964 38.5954C27.0617 40.2748 28.7318 41.6416 30.6668 42.5814C32.6019 43.5211 34.7455 44.0064 36.9184 43.9967C39.1299 44.0072 41.3098 43.498 43.2644 42.5144C45.219 41.5307 46.8876 40.103 48.1219 38.3583C49.7677 40.6457 52.1416 42.3712 54.8949 43.2813C57.6483 44.1915 60.636 44.2383 63.4194 43.4151C66.2029 42.5918 68.6353 40.9418 70.3597 38.7072C72.084 36.4727 73.0094 33.7714 72.9999 31H67.8901C67.8901 33.1402 66.9959 35.1927 65.4041 36.7061C63.8124 38.2194 61.6535 39.0696 59.4024 39.0696C57.1514 39.0696 54.9925 38.2194 53.4008 36.7061C51.809 35.1927 50.9148 33.1402 50.9148 31H45.4015C45.3502 33.1073 44.4337 35.1119 42.848 36.5851C41.2623 38.0583 39.1332 38.8831 36.9161 38.8831C34.699 38.8831 32.5699 38.0583 30.9842 36.5851C29.3984 35.1119 28.4819 33.1073 28.4307 31H23.3254C23.2742 33.1073 22.3577 35.1119 20.772 36.5851C19.1862 38.0583 17.0571 38.8831 14.84 38.8831C12.6229 38.8831 10.4939 38.0583 8.90813 36.5851C7.32239 35.1119 6.40589 33.1073 6.35465 31H1C1.0048 34.4463 2.44722 37.75 5.01078 40.1865C7.57434 42.623 11.0497 43.9933 14.6746 43.9967Z" fill="#00BEFA"/>
<path d="M59.1355 59.7043C58.0039 59.7068 56.8831 59.4833 55.8373 59.0466C54.7915 58.6099 53.8415 57.9687 53.0418 57.1598C52.2421 56.3509 51.6085 55.3903 51.1774 54.3332C50.7464 53.2761 50.5263 52.1433 50.5299 51H44.9354C44.8835 53.2707 43.9543 55.4306 42.3465 57.018C40.7387 58.6054 38.5801 59.4941 36.3322 59.4941C34.0843 59.4941 31.9257 58.6054 30.3179 57.018C28.7101 55.4306 27.7809 53.2707 27.729 51H22.5528C22.5008 53.2707 21.5716 55.4306 19.9638 57.018C18.3561 58.6054 16.1974 59.4941 13.9495 59.4941C11.7016 59.4941 9.54299 58.6054 7.93523 57.018C6.32747 55.4306 5.39824 53.2707 5.34628 51H0C0.00595938 53.9637 0.940822 56.8494 2.67048 59.243C4.40013 61.6367 6.83569 63.4153 9.62775 64.3236C12.4198 65.232 15.4249 65.2235 18.2119 64.2994C20.9988 63.3752 23.4245 61.5828 25.1409 59.1795C26.4363 61.0016 28.1469 62.4818 30.1281 63.4948C32.1093 64.5078 34.3028 65.0238 36.5231 64.9992C38.7434 64.9746 40.9252 64.4101 42.884 63.3534C44.8427 62.2968 46.5208 60.7791 47.7764 58.9287C49.4468 61.3902 51.8538 63.2464 54.6444 64.225C57.435 65.2037 60.4625 65.2533 63.2831 64.3667C66.1037 63.4801 68.569 61.7039 70.3177 59.2984C72.0664 56.8929 73.0064 53.9846 73 51H67.8192C67.7798 53.3081 66.85 55.5095 65.2281 57.1353C63.6061 58.7611 61.4201 59.6829 59.1355 59.7043Z" fill="#00BEFA"/>
<path d="M28.2628 15.8864V9.69762H45.7418V15.8864H28.2628ZM45.7418 0V5.60399H28.2628V0H23V24H28.2628V19.9018H45.7418V24H51V0H45.7418Z" fill="#FF5A02"/>
</svg>
