<svg  viewBox="0 0 51 65" fill="none" xmlns="http://www.w3.org/2000/svg">
<path d="M51 21H37.8327V44.062C37.8646 45.6919 37.5692 47.3117 36.9638 48.8268C36.3583 50.3418 35.455 51.7216 34.3067 52.8855C33.1583 54.0494 31.788 54.974 30.2758 55.6051C28.7637 56.2363 27.1401 56.5614 25.5 56.5614C23.8599 56.5614 22.2363 56.2363 20.7242 55.6051C19.212 54.974 17.8417 54.0494 16.6933 52.8855C15.545 51.7216 14.6417 50.3418 14.0362 48.8268C13.4308 47.3117 13.1354 45.6919 13.1673 44.062V21H0V30.9415H4.43274V44.062C4.43274 49.6151 6.65209 54.9408 10.6025 58.8674C14.553 62.794 19.9109 65 25.4977 65C31.0844 65 36.4424 62.794 40.3928 58.8674C44.3432 54.9408 46.5626 49.6151 46.5626 44.062V30.9415H51V21Z" fill="#FF5A02"/>
<path d="M51 0H37.7625H13.0972H0V5.97778H13.0972V14H37.7625V5.97778H51V0Z" fill="#263472"/>
</svg>
