<svg  viewBox="0 0 17 14" fill="none" xmlns="http://www.w3.org/2000/svg">
<path fill-rule="evenodd" clip-rule="evenodd" d="M17 0C17 3.85963 13.186 7 8.5 7C3.81298 7 0 3.85963 0 0H4.83473C4.83473 0.793006 5.22111 1.55353 5.90886 2.11427C6.59661 2.67501 7.52941 2.99003 8.50204 2.99003C9.47467 2.99003 10.4075 2.67501 11.0952 2.11427C11.783 1.55353 12.1693 0.793006 12.1693 0H17ZM5.90029 9.12858C6.58775 9.69493 7.52265 10.0159 8.5 10.0212C9.4777 10.0164 10.4131 9.69556 11.101 9.12916C11.7889 8.56276 12.1731 7.79702 12.1693 6.99997H17C17 10.86 13.187 14 8.5 14C3.81298 14 0 10.86 0 6.99997H4.83269C4.8289 7.79674 5.21282 8.56222 5.90029 9.12858Z" fill="#00BEFA"/>
</svg>
