<svg viewBox="0 0 308 209" fill="none" xmlns="http://www.w3.org/2000/svg">
<path d="M89.6682 89.8068C101.675 89.8001 113.558 87.3724 124.61 82.668C135.662 77.9636 145.657 71.0787 154 62.4231C166.407 75.2831 182.363 84.1358 199.822 87.8464C217.281 91.557 235.448 89.9564 251.994 83.2497C268.54 76.543 282.71 65.0358 292.688 50.2035C302.667 35.3712 307.999 17.8896 308 0H256.838C256.838 10.2366 252.781 20.054 245.56 27.2924C238.339 34.5308 228.544 38.5973 218.332 38.5973C208.119 38.5973 198.325 34.5308 191.104 27.2924C183.883 20.054 179.826 10.2366 179.826 0H128.664C128.411 10.0649 124.244 19.6323 117.053 26.6612C109.861 33.6901 100.214 37.6242 90.17 37.6242C80.1257 37.6242 70.4789 33.6901 63.2875 26.6612C56.0961 19.6323 51.9293 10.0649 51.6761 0H8.40205e-05C-0.0160543 11.8043 2.29279 23.4958 6.79423 34.4037C11.2957 45.3117 17.9011 55.2216 26.2318 63.5651C34.5624 71.9086 44.4543 78.5216 55.3402 83.0247C66.2261 87.5278 77.8917 89.8326 89.6682 89.8068Z" fill="#00BEFA"/>
<path d="M218.332 157.836C213.276 157.84 208.27 156.851 203.598 154.928C198.926 153.004 194.681 150.183 191.105 146.626C187.529 143.069 184.693 138.845 182.757 134.196C180.822 129.547 179.826 124.564 179.826 119.532H128.664C128.411 129.527 124.244 139.028 117.053 146.008C109.861 152.988 100.214 156.895 90.17 156.895C80.1256 156.895 70.4788 152.988 63.2874 146.008C56.096 139.028 51.9292 129.527 51.676 119.532H0C0.00144033 137.297 5.33316 154.657 15.3116 169.386C25.29 184.115 39.4603 195.542 56.0061 202.202C72.5518 208.863 90.7189 210.452 108.178 206.767C125.637 203.082 141.593 194.291 154 181.521C166.407 194.291 182.363 203.082 199.822 206.767C217.281 210.452 235.448 208.863 251.994 202.202C268.539 195.542 282.71 184.115 292.688 169.386C302.667 154.657 307.999 137.297 308 119.532H256.838C256.755 129.67 252.67 139.368 245.466 146.534C238.262 153.701 228.516 157.76 218.332 157.836Z" fill="#00BEFA"/>
</svg>
