<svg viewBox="0 0 228 231" fill="none" xmlns="http://www.w3.org/2000/svg">
<path d="M114 163.536C154.447 163.536 187.36 130.19 187.36 89.2015H145.684C145.684 93.3723 144.865 97.5022 143.274 101.355C141.683 105.209 139.351 108.71 136.411 111.659C133.47 114.608 129.98 116.948 126.138 118.544C122.297 120.14 118.179 120.961 114.021 120.961C109.863 120.961 105.746 120.14 101.904 118.544C98.0629 116.948 94.5724 114.608 91.6322 111.659C88.692 108.71 86.3597 105.209 84.7685 101.355C83.1773 97.5022 82.3583 93.3723 82.3583 89.2015H40.6822C40.6822 130.19 73.5956 163.536 114.053 163.536M228 231H0V0H228V231Z" fill="#FF5A02"/>
</svg>
