<svg viewBox="0 0 44 44" fill="none" xmlns="http://www.w3.org/2000/svg">
<rect x="23.3354" y="24.8374" width="17.3225" height="5.77418" transform="rotate(135 23.3354 24.8374)" fill="#FF2222"/>
<rect x="17.8911" y="37.0864" width="15.3978" height="5.77418" transform="rotate(-135 17.8911 37.0864)" fill="#FF2222"/>
<path fill-rule="evenodd" clip-rule="evenodd" d="M18.7419 8.33583C14.138 12.9397 14.138 20.404 18.7419 25.0079C23.3457 29.6118 30.8101 29.6118 35.414 25.0079C40.0178 20.404 40.0178 12.9397 35.414 8.33583C30.8101 3.73196 23.3457 3.73196 18.7419 8.33583ZM22.8245 12.4189C20.4755 14.7679 20.4755 18.5762 22.8245 20.9251C25.1734 23.274 28.9817 23.274 31.3306 20.9251C33.6795 18.5762 33.6795 14.7679 31.3306 12.4189C28.9817 10.07 25.1734 10.07 22.8245 12.4189Z" fill="#FDD300"/>
</svg>
