<svg  viewBox="0 0 33 33" fill="none" xmlns="http://www.w3.org/2000/svg">
<rect x="17.5" y="11.5088" width="13.894" height="5.21024" transform="rotate(-45 17.5 11.5088)" fill="#00BEFA"/>
<rect x="18.5698" width="13.894" height="5.21024" fill="#00BEFA"/>
<rect x="32.4639" width="13.894" height="5.21024" transform="rotate(90 32.4639 0)" fill="#00BEFA"/>
<path fill-rule="evenodd" clip-rule="evenodd" d="M22.5657 25.4784C26.7199 21.3242 26.7199 14.5889 22.5657 10.4346C18.4115 6.28041 11.6761 6.28041 7.5219 10.4346C3.36767 14.5889 3.36767 21.3242 7.5219 25.4784C11.6761 29.6327 18.4115 29.6327 22.5657 25.4784ZM18.8816 21.7942C21.0011 19.6747 21.0011 16.2383 18.8816 14.1188C16.7621 11.9993 13.3257 11.9993 11.2062 14.1188C9.08673 16.2383 9.08673 19.6747 11.2062 21.7942C13.3257 23.9138 16.7621 23.9138 18.8816 21.7942Z" fill="#263472"/>
</svg>
