<svg  viewBox="0 0 506 506" fill="none" xmlns="http://www.w3.org/2000/svg">
<path d="M253.489 357.801C343.077 357.801 415.977 284.901 415.977 195.294H323.668C323.668 204.412 321.854 213.441 318.329 221.864C314.805 230.288 309.639 237.942 303.127 244.39C296.615 250.837 288.883 255.951 280.375 259.441C271.866 262.93 262.746 264.726 253.537 264.726C244.327 264.726 235.207 262.93 226.699 259.441C218.19 255.951 210.459 250.837 203.946 244.39C197.434 237.942 192.268 230.288 188.744 221.864C185.219 213.441 183.405 204.412 183.405 195.294H91.0962C91.0962 284.901 163.997 357.801 253.608 357.801M505.99 505.288H0.988281V0.285645H505.99V505.288Z" fill="#00BEFA"/>
</svg>
