<svg viewBox="0 0 145 146" fill="none" xmlns="http://www.w3.org/2000/svg">
<path d="M36.1777 109.242C45.7724 118.837 58.7855 124.227 72.3543 124.227C85.9231 124.227 98.9362 118.837 108.531 109.242C118.125 99.6476 123.516 86.6345 123.516 73.0656C123.516 59.4968 118.125 46.4837 108.531 36.8891L36.1777 109.242Z" fill="#61E354"/>
<path d="M108.529 36.8906C98.9347 27.296 85.9216 21.9058 72.3527 21.9058C58.7839 21.9058 45.7708 27.296 36.1762 36.8906C26.5815 46.4852 21.1914 59.4983 21.1914 73.0672C21.1914 86.636 26.5815 99.6491 36.1762 109.244L108.529 36.8906Z" fill="#FF5A02"/>
<path d="M72.3492 107.077C53.96 107.077 39 92.1094 39 73.7109H105.693C105.693 92.1094 90.7383 107.077 72.3492 107.077Z" fill="white"/>
</svg>
