<svg viewBox="0 0 47 47" fill="none" xmlns="http://www.w3.org/2000/svg">
<path d="M23.4973 7.41347e-07C18.8503 0.00116804 14.3079 1.38023 10.4446 3.96283C6.58131 6.54543 3.57057 10.2156 1.79304 14.5092C0.0155061 18.8029 -0.448986 23.5271 0.45832 28.0847C1.36562 32.6423 3.60397 36.8285 6.89033 40.114C10.1767 43.3996 14.3635 45.6369 18.9213 46.5431C23.4791 47.4492 28.2033 46.9835 32.4965 45.2049C36.7897 43.4263 40.459 40.4146 43.0407 36.5507C45.6223 32.6868 47.0002 28.1441 47.0002 23.497C47.0002 20.4109 46.3923 17.3549 45.2111 14.5038C44.0299 11.6526 42.2985 9.06203 40.116 6.88005C37.9335 4.69807 35.3425 2.96743 32.491 1.78694C29.6395 0.606447 26.5835 -0.000774484 23.4973 7.41347e-07ZM23.4973 38.1347C19.6151 38.1347 15.892 36.5926 13.1469 33.8475C10.4018 31.1024 8.85958 27.3792 8.85958 23.497H38.1409C38.1409 25.4198 37.7621 27.3237 37.0261 29.1C36.2901 30.8763 35.2114 32.4902 33.8515 33.8496C32.4917 35.2089 30.8773 36.287 29.1007 37.0222C27.3241 37.7575 25.42 38.1355 23.4973 38.1347Z" fill="#FDD300"/>
</svg>
