<svg  viewBox="0 0 17 18" fill="none" xmlns="http://www.w3.org/2000/svg">
<path d="M8.50111 3.44103C7.40143 3.44103 6.32645 3.76713 5.4121 4.37808C4.49775 4.98902 3.7851 5.85739 3.36427 6.87336C2.94344 7.88933 2.83333 9.00728 3.04787 10.0858C3.26241 11.1644 3.79195 12.1551 4.56954 12.9327C5.34713 13.7103 6.33784 14.2398 7.41639 14.4544C8.49494 14.6689 9.61289 14.5588 10.6289 14.138C11.6448 13.7171 12.5132 13.0045 13.1241 12.0901C13.7351 11.1758 14.0612 10.1008 14.0612 9.00111C14.0597 7.52693 13.4735 6.11356 12.4311 5.07116C11.3887 4.02876 9.97528 3.4425 8.50111 3.44103ZM8.50111 17.5C6.81987 17.5002 5.17633 17.0019 3.77835 16.068C2.38036 15.134 1.29072 13.8065 0.647239 12.2533C0.00375755 10.7001 -0.164664 8.99095 0.163275 7.34201C0.491214 5.69306 1.30078 4.17841 2.4896 2.9896C3.67841 1.80078 5.19307 0.991214 6.84201 0.663275C8.49095 0.335336 10.2001 0.503758 11.7533 1.14724C13.3065 1.79072 14.634 2.88036 15.568 4.27835C16.5019 5.67633 17.0002 7.31987 17 9.00111C16.9974 11.2543 16.1011 13.4145 14.5078 15.0078C12.9145 16.6011 10.7543 17.4974 8.50111 17.5Z" fill="#FF5A02"/>
</svg>

