<svg  viewBox="0 0 291 291" fill="none" xmlns="http://www.w3.org/2000/svg">
<path fill-rule="evenodd" clip-rule="evenodd" d="M155.02 0H132.732V57.7276H155.02V0ZM145.418 81.8889C132.954 81.9281 120.782 85.6598 110.438 92.6128C100.093 99.5658 92.0415 109.428 87.299 120.954C82.5564 132.481 81.3359 145.154 83.7914 157.373C86.247 169.593 92.2685 180.811 101.096 189.61C109.923 198.409 121.159 204.396 133.386 206.813C145.613 209.23 158.283 207.97 169.794 203.191C181.305 198.412 191.143 190.33 198.063 179.964C204.983 169.598 208.677 157.413 208.677 144.95C208.677 136.652 207.039 128.435 203.858 120.772C200.676 113.108 196.014 106.147 190.137 100.289C184.26 94.4305 177.285 89.7896 169.611 86.6321C161.937 83.4747 153.716 81.8628 145.418 81.8889ZM199.555 73.4292L240.577 32.2776L256.349 47.9997L215.326 89.1513L199.555 73.4292ZM50.4687 32.3466L34.6834 48.055L75.67 89.2424L91.4553 73.534L50.4687 32.3466ZM0 132.482H57.9078V154.697H0V132.482ZM291 132.482H233.093V154.697H291V132.482ZM199.438 213.92L215.224 198.211L256.21 239.399L240.425 255.107L199.438 213.92ZM156.642 231.865H134.355V290.079H156.642V231.865ZM34.8042 239.31L75.8268 198.158L91.5984 213.881L50.5758 255.032L34.8042 239.31Z" fill="#FDD300"/>
</svg>
