<svg width="80" height="65" viewBox="0 0 80 65" fill="none" xmlns="http://www.w3.org/2000/svg">
<path d="M52.9997 53.8716C67.9112 53.8716 79.9993 41.812 79.9993 26.9358C79.9993 12.0596 67.9112 0 52.9997 0C38.0882 0 26 12.0596 26 26.9358C26 41.812 38.0882 53.8716 52.9997 53.8716Z" fill="#00BEFA"/>
<path d="M11.8104 23.5416C18.3266 23.5416 23.6091 18.2716 23.6091 11.7708C23.6091 5.26996 18.3266 0 11.8104 0C5.29417 0 0.0117188 5.26996 0.0117188 11.7708C0.0117188 18.2716 5.29417 23.5416 11.8104 23.5416Z" fill="#FDD300"/>
<path d="M24.6053 44.5415L9.89258 57.4636L16.2865 64.7091L30.9992 51.787L24.6053 44.5415Z" fill="#00BEFA"/>
</svg>
